<svg width="898.965" height="133.921" viewBox="0 0 898.965 133.921" xmlns="http://www.w3.org/2000/svg">
	<g id="svgGroup" stroke-linecap="round" fill-rule="evenodd" font-size="9pt" stroke="#000" stroke-width="0.25mm" fill="none" style="stroke:#000;stroke-width:0.25mm;fill:none">
		<path d="M 45.495 133.92 L 43.74 133.92 A 42.362 42.362 0 0 1 33.888 132.822 A 33.227 33.227 0 0 1 24.3 128.925 Q 16.065 123.93 10.665 116.167 Q 5.265 108.405 2.633 98.82 A 72.037 72.037 0 0 1 0.046 82.399 A 66.343 66.343 0 0 1 0 79.92 A 84.694 84.694 0 0 1 0.158 74.842 A 101.088 101.088 0 0 1 0.405 71.617 A 44.454 44.454 0 0 1 2.077 63.053 A 48.813 48.813 0 0 1 2.16 62.775 A 39.949 39.949 0 0 1 5.7 54.6 A 44.203 44.203 0 0 1 6.008 54.067 A 27.401 27.401 0 0 1 10.48 48.396 A 33.448 33.448 0 0 1 12.825 46.305 Q 16.335 43.47 20.453 41.512 A 24.188 24.188 0 0 1 25.318 39.783 A 20.399 20.399 0 0 1 28.62 39.285 A 1.644 1.644 0 0 0 28.452 39.412 Q 28.215 39.618 28.215 39.825 A 1.131 1.131 0 0 0 28.321 40.288 Q 28.4 40.464 28.536 40.646 A 3.071 3.071 0 0 0 28.823 40.972 A 2.483 2.483 0 0 1 29.167 41.396 Q 29.368 41.713 29.415 42.047 A 1.478 1.478 0 0 1 29.43 42.255 L 29.43 42.525 Q 29.43 43.065 28.823 43.335 Q 28.238 43.595 26.965 44.042 A 73.171 73.171 0 0 1 26.865 44.077 A 30.527 30.527 0 0 0 25.942 44.419 Q 24.84 44.845 23.355 45.495 Q 21.793 46.178 19.807 47.356 A 59.219 59.219 0 0 0 18.225 48.33 Q 18.957 49.062 19.028 49.464 A 0.472 0.472 0 0 1 19.035 49.545 Q 21.6 48.195 23.76 47.655 A 18.752 18.752 0 0 1 26.042 47.226 A 14.651 14.651 0 0 1 27.81 47.115 A 18.002 18.002 0 0 1 29.79 47.216 Q 31.841 47.444 33.07 48.186 A 4.409 4.409 0 0 1 33.48 48.465 A 14.434 14.434 0 0 1 34.076 48.948 Q 34.981 49.724 35.179 50.228 A 0.72 0.72 0 0 1 35.235 50.49 A 1.375 1.375 0 0 1 34.826 51.455 Q 34.431 51.874 33.653 52.202 A 6.349 6.349 0 0 1 33.548 52.245 A 70.621 70.621 0 0 0 32.206 52.799 Q 31.025 53.3 29.633 53.932 Q 27.405 54.945 24.975 56.632 A 9.964 9.964 0 0 0 22.251 59.516 A 13.412 13.412 0 0 0 21.195 61.56 A 20.512 20.512 0 0 0 19.314 65.142 Q 18.589 66.904 18.057 68.974 A 35.689 35.689 0 0 0 17.888 69.66 Q 16.74 74.52 16.74 79.515 A 61.993 61.993 0 0 0 17.372 88.553 A 49.336 49.336 0 0 0 18.765 95.04 A 43.045 43.045 0 0 0 21.531 102.246 A 34.719 34.719 0 0 0 24.503 107.19 Q 28.215 112.32 33.548 115.155 A 24.328 24.328 0 0 0 42.644 117.844 A 30.025 30.025 0 0 0 45.63 117.99 Q 52.11 117.99 57.308 114.75 A 27.919 27.919 0 0 0 64.943 107.641 A 33.171 33.171 0 0 0 66.15 105.908 A 40.788 40.788 0 0 0 70.323 97.401 A 50.066 50.066 0 0 0 71.685 92.948 Q 73.575 85.59 73.575 77.22 Q 73.575 73.17 73.103 69.187 Q 72.63 65.205 71.213 61.56 Q 69.795 57.915 67.298 54.675 A 24.423 24.423 0 0 0 63.838 51.064 A 31.949 31.949 0 0 0 60.75 48.735 A 111.375 111.375 0 0 0 57.728 47.199 Q 54.608 45.676 52.38 44.887 A 17.837 17.837 0 0 1 51.279 44.46 Q 49.14 43.537 49.14 42.66 Q 49.14 42.304 49.557 41.844 A 3.629 3.629 0 0 1 49.68 41.715 A 39.582 39.582 0 0 1 58.686 44.826 A 35.478 35.478 0 0 1 61.83 46.575 Q 66.825 49.68 70.2 54.675 A 33.825 33.825 0 0 0 66.575 50.05 A 25.095 25.095 0 0 0 61.965 46.17 Q 56.97 42.795 50.085 40.905 A 3.792 3.792 0 0 0 50.38 40.576 Q 50.76 40.095 50.76 39.69 A 0.398 0.398 0 0 0 50.609 39.401 Q 50.217 39.038 48.803 38.745 A 142.749 142.749 0 0 1 46.761 38.306 A 182.785 182.785 0 0 1 44.55 37.8 A 29.146 29.146 0 0 1 41.554 36.93 A 24.855 24.855 0 0 1 40.298 36.45 A 6.149 6.149 0 0 1 39.535 36.076 Q 38.675 35.571 38.434 34.938 A 1.429 1.429 0 0 1 38.34 34.425 A 1.675 1.675 0 0 1 38.986 33.109 Q 39.554 32.625 40.623 32.307 A 8.549 8.549 0 0 1 40.77 32.265 Q 42.441 31.801 44.622 31.209 A 1136.732 1136.732 0 0 1 46.71 30.645 Q 47.655 30.645 48.533 30.915 A 24.311 24.311 0 0 1 49.311 31.168 Q 49.674 31.294 49.994 31.419 A 14.417 14.417 0 0 1 50.085 31.455 Q 56.7 32.67 62.708 35.775 Q 68.715 38.88 73.508 43.74 A 41.998 41.998 0 0 1 80.38 53.039 A 48.713 48.713 0 0 1 81.54 55.282 A 43.438 43.438 0 0 1 84.91 65.269 A 53.233 53.233 0 0 1 85.725 70.335 A 47.909 47.909 0 0 0 84.011 60.932 A 40.841 40.841 0 0 0 82.148 55.822 Q 79.245 49.275 74.588 44.145 Q 69.93 39.015 63.72 35.505 Q 57.51 31.995 50.49 30.105 A 32.274 32.274 0 0 1 61.882 32.228 A 37.027 37.027 0 0 1 62.843 32.603 A 36.563 36.563 0 0 1 73.793 39.595 A 41.394 41.394 0 0 1 74.115 39.893 A 42.839 42.839 0 0 1 80.531 47.535 A 52.533 52.533 0 0 1 83.025 51.705 A 49.722 49.722 0 0 1 87.019 61.661 A 62.155 62.155 0 0 1 88.425 67.77 Q 88.155 67.77 87.615 67.972 A 5.637 5.637 0 0 1 87.362 68.061 Q 87.008 68.175 86.805 68.175 A 78.517 78.517 0 0 1 87.977 79.096 A 70.379 70.379 0 0 1 88.02 81.54 Q 88.02 90.99 85.118 100.035 A 52.891 52.891 0 0 1 78.074 114.365 A 49.693 49.693 0 0 1 76.748 116.167 Q 71.28 123.255 63.315 127.642 A 35.401 35.401 0 0 1 50.077 131.756 A 44.3 44.3 0 0 1 45.09 132.03 Q 39.015 132.03 33.21 130.275 Q 27.405 128.52 22.41 125.55 A 1.217 1.217 0 0 1 22.549 125.715 Q 22.618 125.813 22.65 125.911 A 0.566 0.566 0 0 1 22.68 126.09 A 0.195 0.195 0 0 1 22.573 126.262 Q 22.426 126.351 22.08 126.359 A 3.095 3.095 0 0 1 22.005 126.36 A 0.671 0.671 0 0 1 22.047 126.406 Q 22.084 126.451 22.106 126.495 A 0.3 0.3 0 0 1 22.14 126.63 A 0.671 0.671 0 0 1 22.098 126.584 Q 22.061 126.539 22.039 126.495 A 0.3 0.3 0 0 1 22.005 126.36 Q 27 129.6 32.805 131.355 Q 38.745 133.245 44.955 133.245 A 40.26 40.26 0 0 0 54.546 132.132 A 35.906 35.906 0 0 0 58.05 131.085 Q 64.125 128.925 69.12 125.145 Q 74.115 121.365 77.895 116.37 Q 80.595 112.86 82.62 108.81 Q 80.865 112.59 78.57 116.235 Q 75.33 121.365 70.538 125.28 A 38.867 38.867 0 0 1 60.876 131.022 A 44.324 44.324 0 0 1 59.535 131.558 A 35.654 35.654 0 0 1 51.365 133.56 A 46.15 46.15 0 0 1 45.495 133.92 Z M 84.497 91.803 A 110.822 110.822 0 0 0 85.995 83.025 A 5.512 5.512 0 0 1 86.01 82.611 Q 86.024 82.419 86.053 82.255 A 2.206 2.206 0 0 1 86.13 81.945 Q 85.86 87.885 84.578 93.892 Q 83.295 99.9 80.933 105.3 Q 78.57 110.7 75.06 115.29 Q 71.55 119.745 66.96 122.985 Q 71.55 119.61 74.925 115.02 Q 78.3 110.295 80.528 104.895 Q 82.755 99.495 84.038 93.892 A 124.947 124.947 0 0 0 84.497 91.803 Z M 75.195 90.855 A 45.715 45.715 0 0 1 75.165 91.024 A 41.354 41.354 0 0 1 72.09 100.98 Q 69.93 105.705 66.42 109.35 Q 69.795 105.57 71.955 100.777 Q 74.115 95.985 75.195 90.855 Q 75.87 87.885 76.208 84.847 Q 76.545 81.81 76.545 78.705 Q 76.545 75.33 76.14 71.82 A 72.746 72.746 0 0 1 76.302 73.928 A 62.716 62.716 0 0 1 76.343 74.655 A 54.886 54.886 0 0 1 76.406 76.756 A 63.139 63.139 0 0 1 76.41 77.49 Q 76.41 84.375 75.195 90.855 Z M 88.425 88.695 L 88.425 89.235 L 87.21 95.85 Q 86.535 98.28 85.86 100.642 Q 85.185 103.005 84.24 105.3 Q 85.725 101.115 86.738 96.93 Q 87.75 92.745 88.425 88.695 Z M 89.1 76.68 L 89.1 78.975 A 42.282 42.282 0 0 1 88.893 83.095 A 46.585 46.585 0 0 1 88.83 83.7 A 90.383 90.383 0 0 1 88.49 87.82 A 99.111 99.111 0 0 1 88.425 88.425 Q 88.425 86.13 88.695 83.295 A 64.559 64.559 0 0 0 88.913 79.783 A 82.373 82.373 0 0 0 88.965 76.815 L 88.965 74.385 A 17.591 17.591 0 0 1 89.087 75.934 A 20.76 20.76 0 0 1 89.1 76.68 Z M 83.835 106.245 L 83.295 107.595 L 83.835 106.245 Q 83.919 105.992 84.056 105.686 A 10.148 10.148 0 0 1 84.24 105.3 A 10.844 10.844 0 0 0 84.121 105.546 Q 84.028 105.744 83.955 105.922 A 5.308 5.308 0 0 0 83.835 106.245 Z M 82.755 108.54 A 3.698 3.698 0 0 0 83.028 108.059 A 3.041 3.041 0 0 0 83.16 107.73 A 3.184 3.184 0 0 1 82.925 108.262 A 3.903 3.903 0 0 1 82.755 108.54 Z M 71.01 55.755 A 1.773 1.773 0 0 0 70.841 55.485 Q 70.753 55.367 70.638 55.249 A 2.982 2.982 0 0 0 70.605 55.215 A 1.773 1.773 0 0 0 70.774 55.485 Q 70.862 55.603 70.977 55.721 A 2.982 2.982 0 0 0 71.01 55.755 Z" id="0" vector-effect="non-scaling-stroke"/>
		<path d="M 142.425 112.185 L 143.91 112.185 Q 144.54 112.185 145.332 112.022 A 11.423 11.423 0 0 0 145.8 111.915 L 147.285 112.995 Q 152.55 111.375 155.925 106.852 A 15.793 15.793 0 0 0 158.43 101.632 Q 159.028 99.508 159.215 96.997 A 31.821 31.821 0 0 0 159.3 94.635 A 18.228 18.228 0 0 0 159.125 92.01 Q 158.665 88.858 156.994 87.289 A 5.247 5.247 0 0 0 156.668 87.008 Q 154.536 85.313 149.526 84.991 A 39.221 39.221 0 0 0 147.015 84.915 A 67.289 67.289 0 0 0 140.345 85.257 A 76.419 76.419 0 0 0 138.038 85.522 A 73.22 73.22 0 0 1 130.785 86.092 A 83.712 83.712 0 0 1 128.25 86.13 A 56.59 56.59 0 0 1 123.828 85.952 A 62.053 62.053 0 0 1 123.525 85.928 A 28.419 28.419 0 0 1 119.527 85.296 A 32.394 32.394 0 0 1 118.53 85.05 L 118.53 85.86 A 44.069 44.069 0 0 0 128.536 87.205 A 41.172 41.172 0 0 0 129.195 87.21 A 78.239 78.239 0 0 0 136.624 86.868 A 68.625 68.625 0 0 0 138.983 86.602 A 71.657 71.657 0 0 1 145.779 86.033 A 63.289 63.289 0 0 1 147.96 85.995 Q 151.605 85.995 153.698 86.737 A 10.331 10.331 0 0 1 155.098 87.346 Q 156.187 87.926 156.87 88.695 A 6.051 6.051 0 0 1 158.266 91.492 A 7.158 7.158 0 0 1 158.288 91.598 A 17.04 17.04 0 0 1 158.56 93.603 A 21.786 21.786 0 0 1 158.625 95.31 A 19.857 19.857 0 0 1 157.908 100.758 A 16.045 16.045 0 0 1 155.25 106.11 A 16.177 16.177 0 0 1 152.212 109.155 A 12.605 12.605 0 0 1 147.555 111.375 Q 152.55 109.62 155.385 105.3 Q 158.355 100.71 158.355 95.04 Q 158.355 92.064 157.225 90.109 A 6.509 6.509 0 0 0 156.263 88.83 Q 154.298 86.802 149.655 86.678 A 23.074 23.074 0 0 0 149.04 86.67 A 77.408 77.408 0 0 0 144.879 86.789 Q 142.699 86.906 140.284 87.141 A 128.441 128.441 0 0 0 139.59 87.21 A 103.084 103.084 0 0 1 132.745 87.674 A 122.555 122.555 0 0 1 128.385 87.75 A 34.403 34.403 0 0 1 125.008 87.572 Q 123.258 87.399 121.302 87.057 A 63.847 63.847 0 0 1 119.948 86.805 Q 115.155 85.86 110.835 83.295 A 22.015 22.015 0 0 1 104.211 77.173 A 25.885 25.885 0 0 1 103.545 76.208 Q 100.982 72.304 100.631 66.34 A 33.11 33.11 0 0 1 100.575 64.395 A 24.932 24.932 0 0 1 102.075 55.701 A 23.583 23.583 0 0 1 102.938 53.662 Q 105.3 48.735 109.215 45.022 Q 113.13 41.31 118.193 39.15 Q 123.255 36.99 128.655 36.855 Q 133.785 36.855 138.443 38.272 Q 143.1 39.69 147.285 41.917 Q 151.47 44.145 155.25 46.845 A 123.77 123.77 0 0 1 160.511 50.811 A 107.011 107.011 0 0 1 162.27 52.245 L 159.57 54.945 A 2.358 2.358 0 0 1 158.983 54.859 Q 158.395 54.706 157.582 54.279 A 15.743 15.743 0 0 1 156.735 53.797 A 37.588 37.588 0 0 1 155.663 53.118 Q 153.866 51.941 150.93 49.815 L 150.12 51.03 A 52.642 52.642 0 0 1 152.9 53.424 Q 155.676 56 157.208 58.32 A 24.776 24.776 0 0 1 158.182 59.915 Q 159.062 61.498 159.324 62.668 A 4.22 4.22 0 0 1 159.435 63.585 A 1.772 1.772 0 0 1 159.234 64.083 Q 158.878 64.665 158.085 64.665 A 2.519 2.519 0 0 1 157.485 64.575 Q 156.544 64.336 154.826 63.467 A 43.186 43.186 0 0 1 153.765 62.91 Q 150.74 61.272 146.95 59.28 A 864.483 864.483 0 0 0 146.408 58.995 A 80.77 80.77 0 0 0 137.986 55.19 A 88.013 88.013 0 0 0 137.7 55.08 A 30.145 30.145 0 0 0 134.104 53.944 Q 132.207 53.48 130.47 53.364 A 17.105 17.105 0 0 0 129.33 53.325 A 12.122 12.122 0 0 0 125.348 54.013 A 13.836 13.836 0 0 0 125.01 54.135 Q 122.85 54.945 121.095 56.362 Q 119.34 57.78 118.193 59.805 Q 117.045 61.83 117.045 64.26 A 6.4 6.4 0 0 0 117.383 66.408 Q 118.023 68.212 119.871 69.166 A 7.35 7.35 0 0 0 120.69 69.525 A 18.701 18.701 0 0 0 123.711 70.341 Q 125.28 70.637 127.128 70.769 A 44.293 44.293 0 0 0 130.275 70.875 Q 131.49 70.875 132.908 70.807 A 16.759 16.759 0 0 0 134.595 70.645 A 13.769 13.769 0 0 0 135.54 70.47 A 75.566 75.566 0 0 0 136.798 70.46 Q 138.503 70.432 139.34 70.319 A 5.097 5.097 0 0 0 139.658 70.268 A 10.314 10.314 0 0 1 141.138 70.078 A 9.069 9.069 0 0 1 141.615 70.065 Q 147.42 70.065 153.225 70.875 A 29.4 29.4 0 0 1 160.242 72.72 A 25.729 25.729 0 0 1 163.62 74.385 A 20.076 20.076 0 0 1 170.451 81.089 A 24.098 24.098 0 0 1 171.045 82.08 A 19.314 19.314 0 0 1 172.881 86.695 Q 173.88 90.475 173.88 95.445 Q 173.88 101.25 171.923 106.987 Q 169.965 112.725 166.05 117.247 A 28.993 28.993 0 0 1 157.577 123.911 A 33.694 33.694 0 0 1 156.33 124.537 Q 150.525 127.305 142.695 127.305 A 30.465 30.465 0 0 1 138.577 127.004 Q 136.57 126.729 134.329 126.204 A 61.786 61.786 0 0 1 131.558 125.483 Q 125.145 123.66 119.408 121.162 A 75.04 75.04 0 0 1 114.723 118.938 Q 111.928 117.484 109.688 115.965 Q 105.705 113.265 105.705 111.375 A 0.741 0.741 0 0 1 106.013 110.768 Q 106.161 110.653 106.38 110.565 Q 114.615 116.64 123.12 120.555 Q 131.49 124.2 140.265 124.605 Q 135.945 124.335 131.625 123.12 Q 127.17 121.77 122.783 119.812 Q 118.395 117.855 114.413 115.357 Q 110.43 112.86 106.785 110.295 L 108.81 108.54 A 1.553 1.553 0 0 1 108.601 108.449 Q 108.241 108.265 107.598 107.797 A 23.427 23.427 0 0 1 107.325 107.595 A 11.409 11.409 0 0 1 106.066 106.49 A 14.516 14.516 0 0 1 105.233 105.57 Q 104.22 104.355 103.41 103.005 Q 102.6 101.655 102.6 100.44 A 6.711 6.711 0 0 1 102.6 100.422 Q 102.603 99.401 102.917 98.926 A 0.956 0.956 0 0 1 103.14 98.685 Q 103.68 98.28 104.355 98.28 A 1.868 1.868 0 0 1 104.721 98.325 Q 105.503 98.487 107.19 99.225 A 53.832 53.832 0 0 0 108.943 99.953 Q 110.514 100.575 112.455 101.25 A 17.21 17.21 0 0 1 114.044 101.842 Q 114.851 102.185 115.754 102.645 A 41.101 41.101 0 0 1 117.653 103.68 A 112.12 112.12 0 0 0 120.876 105.469 A 148.202 148.202 0 0 0 124.47 107.325 A 57.864 57.864 0 0 0 129.885 109.682 A 69.251 69.251 0 0 0 132.773 110.7 A 30.284 30.284 0 0 0 141.132 112.161 A 34.671 34.671 0 0 0 142.425 112.185 Z M 161.865 94.905 L 161.865 93.555 A 18.017 18.017 0 0 0 161.019 90.186 A 12.885 12.885 0 0 0 158.962 86.468 A 7.645 7.645 0 0 0 155.37 84.022 Q 154.139 83.604 152.642 83.467 A 15.443 15.443 0 0 0 152.145 83.43 A 16.281 16.281 0 0 1 154.277 83.979 Q 155.358 84.341 156.238 84.839 A 8.977 8.977 0 0 1 156.803 85.185 A 9.832 9.832 0 0 1 158.681 86.794 A 8.426 8.426 0 0 1 159.638 88.087 Q 160.65 89.775 161.055 91.8 Q 161.46 93.825 161.46 95.985 A 26.854 26.854 0 0 1 160.445 102.01 A 18.225 18.225 0 0 1 155.79 109.958 Q 150.66 115.02 142.29 115.02 Q 137.946 115.02 132.745 113.365 A 46.672 46.672 0 0 1 131.828 113.063 Q 126.09 111.105 120.96 108 A 54.869 54.869 0 0 0 127.616 111.836 A 64.12 64.12 0 0 0 130.275 113.062 A 26.288 26.288 0 0 0 136.748 114.894 A 35.32 35.32 0 0 0 142.155 115.29 A 23.868 23.868 0 0 0 148.417 114.512 A 17.35 17.35 0 0 0 156.533 109.755 A 18.584 18.584 0 0 0 161.331 100.421 A 27.093 27.093 0 0 0 161.865 94.905 Z M 159.435 120.285 A 18.411 18.411 0 0 0 163.514 116.78 A 16.706 16.706 0 0 0 164.835 115.02 Q 166.86 111.915 168.345 108.54 Q 165.51 114.21 160.583 118.53 Q 155.655 122.85 148.905 123.93 A 49.781 49.781 0 0 0 152.782 123.153 A 57.722 57.722 0 0 0 154.238 122.782 Q 157.005 122.04 159.435 120.285 Z M 171.045 89.775 A 18.869 18.869 0 0 0 171.133 90.151 A 16.781 16.781 0 0 0 171.72 92.07 Q 172.26 93.42 172.26 94.905 Q 171.99 98.55 170.843 101.857 A 136.142 136.142 0 0 1 170.265 103.49 A 119.557 119.557 0 0 1 168.48 108.135 Q 169.695 104.895 170.505 101.52 Q 171.315 98.145 171.315 94.5 Q 171.315 92.61 171.18 91.53 L 171.045 89.775 L 171.045 89.37 L 171.045 89.775 Z M 147.42 111.51 L 147.15 111.51 L 147.42 111.51 Z" id="1" vector-effect="non-scaling-stroke"/>
		<path d="M 247.995 118.125 L 247.05 116.505 Q 247.05 112.05 246.443 107.46 Q 245.835 102.87 245.835 98.55 L 245.835 94.905 Q 245.371 91.285 244.779 86.804 A 3376.072 3376.072 0 0 0 244.215 82.552 A 145.394 145.394 0 0 0 242.494 72.339 A 126.502 126.502 0 0 0 241.785 69.12 Q 240.485 63.567 238.668 59.461 A 36.106 36.106 0 0 0 238.14 58.32 Q 237.016 56.001 235.599 54.89 A 4.529 4.529 0 0 0 232.74 53.865 Q 228.852 53.865 224.782 56.835 A 25.053 25.053 0 0 0 223.02 58.252 A 25.793 25.793 0 0 0 218.826 63.046 Q 216.496 66.433 214.65 71.01 A 47.222 47.222 0 0 0 212.502 80.344 A 52.232 52.232 0 0 0 212.423 81 A 237.735 237.735 0 0 0 211.625 89.201 A 273.217 273.217 0 0 0 211.41 92.07 A 809.117 809.117 0 0 0 210.689 103.634 A 877.877 877.877 0 0 0 210.667 104.017 A 143.021 143.021 0 0 1 209.82 113.497 A 161.941 161.941 0 0 1 209.385 116.775 Q 209.153 117.355 208.971 118.135 A 14.425 14.425 0 0 0 208.913 118.395 Q 208.71 119.34 208.575 120.015 L 191.97 120.015 L 191.97 109.08 Q 191.877 108.152 191.784 106.969 A 162.765 162.765 0 0 1 191.7 105.84 Q 191.565 103.95 191.363 101.992 Q 191.16 100.035 191.025 98.145 Q 190.932 96.846 190.839 95.801 A 81.969 81.969 0 0 0 190.755 94.905 Q 190.755 83.97 189.878 73.035 Q 189 62.1 188.73 50.76 L 191.835 50.085 A 0.554 0.554 0 0 1 192.115 50.169 Q 192.318 50.288 192.537 50.574 A 3.642 3.642 0 0 1 192.713 50.828 A 2.994 2.994 0 0 1 192.954 51.312 Q 193.169 51.847 193.352 52.694 A 19.509 19.509 0 0 1 193.523 53.595 Q 193.781 55.145 194.039 57.685 A 154.468 154.468 0 0 1 194.198 59.332 A 127.975 127.975 0 0 1 194.362 61.328 Q 194.569 64.08 194.747 67.757 A 395.133 395.133 0 0 1 194.805 68.985 A 0.405 0.405 0 0 0 194.889 68.975 Q 194.974 68.957 195.092 68.906 A 2.429 2.429 0 0 0 195.21 68.85 Q 195.625 68.642 195.881 68.594 A 0.761 0.761 0 0 1 196.02 68.58 Q 196.02 67.635 195.953 66.69 Q 195.885 65.745 195.885 64.8 A 140.424 140.424 0 0 1 196.022 58.377 Q 196.346 51.326 197.438 46.912 Q 198.811 41.357 199.815 40.718 A 0.474 0.474 0 0 1 200.07 40.635 Q 200.836 40.635 201.602 43.774 A 30.398 30.398 0 0 1 201.69 44.145 A 48.953 48.953 0 0 1 202.103 46.153 Q 202.721 49.463 203.411 54.942 A 310.735 310.735 0 0 1 203.445 55.215 Q 205.74 51.57 208.71 48.195 Q 211.68 44.82 215.393 42.322 Q 219.105 39.825 223.425 38.34 Q 227.745 36.855 232.875 36.855 Q 237.33 36.855 240.705 38.745 Q 244.08 40.635 246.713 43.672 A 29.977 29.977 0 0 1 250.937 50.08 A 33.322 33.322 0 0 1 251.167 50.558 Q 252.99 54.405 254.34 58.252 A 83.633 83.633 0 0 1 256.037 63.644 A 71.794 71.794 0 0 1 256.568 65.677 A 294.399 294.399 0 0 0 257.197 68.199 Q 257.698 70.166 258.12 71.685 A 1.289 1.289 0 0 0 258.146 71.934 Q 258.17 72.055 258.216 72.187 A 2.448 2.448 0 0 0 258.255 72.292 Q 258.39 72.63 258.525 72.9 Q 259.917 69.187 261.908 64.528 A 304.082 304.082 0 0 1 262.575 62.977 Q 265.005 57.375 268.65 52.38 Q 272.295 47.385 277.223 43.942 A 19.147 19.147 0 0 1 287.429 40.53 A 23.608 23.608 0 0 1 288.63 40.5 A 19.857 19.857 0 0 1 294.078 41.217 A 16.045 16.045 0 0 1 299.43 43.875 A 27.986 27.986 0 0 1 305.939 50.916 A 32.858 32.858 0 0 1 306.923 52.515 Q 309.96 57.78 311.783 64.192 A 105.064 105.064 0 0 1 314.267 75.015 A 94.78 94.78 0 0 1 314.55 76.747 A 131.395 131.395 0 0 1 315.326 82.637 A 98.755 98.755 0 0 1 315.765 88.02 Q 315.972 91.948 316.02 94.451 A 72.799 72.799 0 0 1 316.035 95.85 Q 316.035 99.262 315.824 101.242 A 16.353 16.353 0 0 1 315.698 102.195 A 4.293 4.293 0 0 1 315.495 102.984 Q 315.035 104.22 313.875 104.22 Q 313.605 98.82 313.403 93.285 Q 313.2 87.75 312.593 82.147 Q 311.985 76.545 310.905 71.145 Q 309.825 65.88 308.07 60.75 Q 311.445 71.415 311.985 82.08 Q 312.66 92.88 313.065 103.41 Q 312.173 102.518 311.642 102.468 A 0.659 0.659 0 0 0 311.58 102.465 A 0.467 0.467 0 0 0 311.17 102.689 Q 311.114 102.774 311.073 102.892 A 1.374 1.374 0 0 0 311.04 103.005 L 311.04 107.055 A 99.401 99.401 0 0 0 311.078 109.763 A 111.118 111.118 0 0 0 311.108 110.7 Q 311.162 112.239 311.352 113.42 A 13.73 13.73 0 0 0 311.445 113.94 A 563.189 563.189 0 0 1 311.314 116.509 Q 311.144 119.691 311.005 121.444 A 64.388 64.388 0 0 1 310.973 121.837 Q 310.828 123.518 310.377 124.345 A 1.806 1.806 0 0 1 309.96 124.875 Q 308.986 124.875 308.231 123.886 A 4.353 4.353 0 0 1 308.07 123.66 A 12.283 12.283 0 0 1 307.423 122.561 Q 307.133 122.009 306.851 121.363 A 24.082 24.082 0 0 1 306.518 120.555 A 45.143 45.143 0 0 1 305.704 118.301 A 57.676 57.676 0 0 1 305.1 116.37 A 277.418 277.418 0 0 0 303.792 112.05 A 255.499 255.499 0 0 0 303.75 111.915 L 303.75 108.27 A 1155.765 1155.765 0 0 0 303.712 99.056 A 1315.407 1315.407 0 0 0 303.683 95.85 Q 303.615 89.37 303.143 83.227 A 117.085 117.085 0 0 0 302.13 74.355 A 102.231 102.231 0 0 0 301.658 71.55 Q 300.645 66.015 298.958 61.762 A 22.639 22.639 0 0 0 297.43 58.608 Q 296.431 56.914 295.212 55.644 A 13.315 13.315 0 0 0 294.638 55.08 A 9.085 9.085 0 0 0 288.358 52.651 A 11.667 11.667 0 0 0 288.225 52.65 Q 285.12 52.65 282.555 54.27 A 15.702 15.702 0 0 0 280.884 55.504 A 20.507 20.507 0 0 0 279.585 56.7 Q 281.07 55.35 282.69 54.405 Q 285.255 52.785 288.225 52.785 L 288.765 52.785 A 7.359 7.359 0 0 1 294.203 55.099 A 9.635 9.635 0 0 1 294.503 55.417 Q 296.637 57.795 298.11 61.55 A 30.333 30.333 0 0 1 298.418 62.37 A 44.426 44.426 0 0 1 299.857 67.303 A 59.836 59.836 0 0 1 300.78 72.225 Q 301.59 77.76 302.063 83.7 Q 302.535 89.64 302.67 95.512 Q 302.805 101.385 302.94 106.245 A 72.965 72.965 0 0 1 302.361 103.211 Q 302.074 101.526 301.818 99.626 A 136.241 136.241 0 0 1 301.523 97.268 Q 300.915 92.07 300.308 86.4 Q 299.7 80.73 298.823 75.195 Q 297.945 69.66 296.595 65.272 A 30.768 30.768 0 0 0 295.437 62.102 Q 294.454 59.83 293.22 58.185 A 7.627 7.627 0 0 0 291.679 56.62 A 5.647 5.647 0 0 0 288.225 55.485 A 12.447 12.447 0 0 0 287.145 55.529 Q 286.567 55.58 286.065 55.687 A 3.006 3.006 0 0 0 285.456 55.897 Q 284.865 56.166 284.119 56.725 A 14.457 14.457 0 0 0 283.635 57.105 L 282.285 56.43 A 28.143 28.143 0 0 0 277.591 61.841 A 38.109 38.109 0 0 0 274.59 67.23 A 94.508 94.508 0 0 0 270.168 78.867 A 107.154 107.154 0 0 0 269.325 81.742 Q 267.165 89.505 265.68 97.605 A 1402.753 1402.753 0 0 1 264.229 105.401 A 1103.497 1103.497 0 0 1 262.845 112.59 L 262.845 117.72 Q 265.005 107.055 266.828 96.727 Q 268.65 86.4 272.16 76.68 Q 269.46 85.05 267.975 93.96 Q 266.49 102.87 264.6 112.185 A 6.079 6.079 0 0 1 264.56 112.842 Q 264.486 113.524 264.27 114.443 A 22.778 22.778 0 0 1 264.195 114.75 A 60.84 60.84 0 0 1 263.959 115.661 Q 263.554 117.18 262.845 119.61 L 247.995 118.125 Z M 247.455 114.75 L 248.535 109.755 A 112.731 112.731 0 0 1 248.337 107.806 Q 248.046 104.692 247.793 100.44 Q 247.455 94.77 246.915 88.425 Q 246.375 82.08 245.43 75.6 Q 244.485 69.12 242.798 63.922 Q 241.392 59.594 239.425 56.624 A 19.473 19.473 0 0 0 238.613 55.485 Q 236.115 52.245 232.335 52.245 Q 231.12 52.245 229.77 52.785 Q 228.42 53.325 227.205 54 Q 227.469 53.912 227.675 53.881 A 1.401 1.401 0 0 1 227.88 53.865 L 228.015 53.865 A 0.18 0.18 0 0 1 227.996 53.937 Q 227.928 54.086 227.62 54.395 A 6.632 6.632 0 0 1 227.61 54.405 A 37.038 37.038 0 0 1 229.532 53.818 Q 231.825 53.19 233.28 53.19 A 7.346 7.346 0 0 1 235.602 54.612 Q 236.414 55.329 237.158 56.33 A 15.595 15.595 0 0 1 237.87 57.375 A 28.545 28.545 0 0 1 239.743 60.936 Q 240.604 62.876 241.313 65.137 A 82.921 82.921 0 0 1 242.926 71.081 A 99.773 99.773 0 0 1 243.743 74.925 A 137.758 137.758 0 0 1 244.911 81.941 A 117.451 117.451 0 0 1 245.295 84.982 Q 245.799 89.457 246.068 93.049 A 149.689 149.689 0 0 1 246.105 93.555 Q 246.375 97.335 246.375 98.955 Q 246.78 103.005 247.118 106.92 Q 247.455 110.835 247.455 114.75 Z M 262.17 102.06 L 262.44 104.22 Q 264.195 94.5 266.49 84.645 A 102.999 102.999 0 0 1 271.608 69.276 A 95.034 95.034 0 0 1 272.025 68.31 A 7.176 7.176 0 0 1 271.924 68.595 Q 271.839 68.816 271.755 68.985 Q 271.08 70.335 270.54 71.82 A 132.053 132.053 0 0 0 266.332 84.437 A 145.878 145.878 0 0 0 265.815 86.332 Q 263.79 93.96 262.17 102.06 Z M 260.07 74.353 A 61.612 61.612 0 0 0 260.145 74.655 A 27.319 27.319 0 0 0 260.257 75.036 Q 260.445 75.659 260.55 75.87 A 14.99 14.99 0 0 1 260.812 75.09 Q 261.293 73.761 262.305 71.482 A 298.765 298.765 0 0 1 263.723 68.344 A 365.785 365.785 0 0 1 265.275 65.002 A 332.292 332.292 0 0 1 266.861 61.678 A 270.983 270.983 0 0 1 268.38 58.59 Q 268.844 57.546 269.208 56.701 A 126.84 126.84 0 0 0 269.325 56.43 Q 268.974 57.132 268.42 57.936 A 18.238 18.238 0 0 1 268.245 58.185 A 152.488 152.488 0 0 1 265.879 62.327 A 175.893 175.893 0 0 1 265.005 63.788 A 164.143 164.143 0 0 0 262.549 67.984 A 141.978 141.978 0 0 0 261.765 69.39 Q 260.28 72.09 259.875 73.44 Q 259.875 73.555 260.07 74.353 Z M 249.48 96.93 L 248.535 90.18 Q 248.805 92.34 248.873 94.365 Q 248.94 96.39 249.075 98.145 L 249.48 104.625 L 249.615 103.95 A 52.319 52.319 0 0 1 249.485 100.968 A 46.629 46.629 0 0 1 249.48 100.305 L 249.48 96.93 Z M 289.98 43.875 L 292.815 43.875 A 19.097 19.097 0 0 0 290.202 43.334 A 15.126 15.126 0 0 0 288.225 43.2 L 286.74 43.2 A 10.349 10.349 0 0 0 286.468 43.203 Q 285.939 43.217 285.826 43.291 A 0.055 0.055 0 0 0 285.795 43.335 L 285.93 43.335 A 18.752 18.752 0 0 0 288.212 43.764 A 14.651 14.651 0 0 0 289.98 43.875 Z M 273.78 72.63 L 272.835 74.79 A 89.348 89.348 0 0 0 273.772 72.031 A 78.121 78.121 0 0 0 274.05 71.145 Q 274.719 69.404 275.123 68.726 A 3.867 3.867 0 0 1 275.13 68.715 A 0.982 0.982 0 0 1 275.117 68.859 Q 275.079 69.111 274.926 69.591 A 14.817 14.817 0 0 1 274.86 69.795 A 10.841 10.841 0 0 1 274.691 70.327 Q 274.485 70.929 274.138 71.776 A 55.977 55.977 0 0 1 273.78 72.63 Z M 302.13 49.545 A 8.51 8.51 0 0 0 301.408 48.786 Q 301.021 48.423 300.552 48.059 A 14.558 14.558 0 0 0 300.375 47.925 Q 299.565 47.385 298.89 46.98 A 25.344 25.344 0 0 1 301.067 48.614 A 30.436 30.436 0 0 1 302.13 49.545 Z M 270 55.215 A 1.233 1.233 0 0 0 269.796 55.491 Q 269.673 55.713 269.595 56.025 A 3.698 3.698 0 0 0 269.868 55.544 A 3.041 3.041 0 0 0 270 55.215 Z" id="2" vector-effect="non-scaling-stroke"/>
		<path d="M 379.35 113.94 L 389.07 113.94 Q 382.32 113.535 375.638 113.467 A 74.82 74.82 0 0 1 369.316 113.149 A 54.905 54.905 0 0 1 363.623 112.32 A 24.802 24.802 0 0 1 359.624 111.175 Q 356.946 110.143 354.983 108.54 A 8.57 8.57 0 0 1 352.14 104.058 Q 351.74 102.616 351.684 100.881 A 17.792 17.792 0 0 1 351.675 100.305 A 27.896 27.896 0 0 1 351.776 97.844 Q 351.995 95.386 352.685 93.787 A 7.445 7.445 0 0 1 352.823 93.488 Q 353.97 91.125 355.928 89.977 A 9.616 9.616 0 0 1 358.589 88.93 A 12.787 12.787 0 0 1 360.585 88.628 A 72.07 72.07 0 0 1 364.118 88.453 A 88.414 88.414 0 0 1 366.39 88.425 Q 370.17 88.425 374.085 88.83 Q 370.98 89.775 367.808 90.247 Q 364.635 90.72 361.935 91.192 A 32.262 32.262 0 0 0 359.715 91.658 Q 358.713 91.907 357.843 92.204 A 18.049 18.049 0 0 0 357.278 92.408 Q 355.902 92.929 355.16 93.751 A 3.35 3.35 0 0 0 354.645 94.5 L 354.645 100.575 L 353.565 101.115 A 96.548 96.548 0 0 0 353.831 102.697 Q 354.223 104.912 354.578 106.177 A 3.372 3.372 0 0 0 355.757 107.915 Q 356.22 108.288 356.846 108.583 A 7.313 7.313 0 0 0 357.21 108.742 A 12.388 12.388 0 0 0 358.633 109.209 Q 360.718 109.772 364.163 110.16 A 358.265 358.265 0 0 1 366.833 110.472 Q 369.87 110.838 374.073 111.383 A 1540.953 1540.953 0 0 1 378.135 111.915 L 387.855 111.915 A 51.1 51.1 0 0 0 388.743 111.908 Q 390.509 111.877 390.893 111.712 A 7.955 7.955 0 0 1 391.058 111.644 Q 391.314 111.541 391.438 111.517 A 0.342 0.342 0 0 1 391.5 111.51 L 390.285 104.22 A 67.5 67.5 0 0 0 389.981 101.655 A 49.217 49.217 0 0 0 389.61 99.36 Q 389.205 97.2 388.53 94.77 Q 388.395 95.175 387.72 95.175 A 46.589 46.589 0 0 1 388.619 98.769 A 53.071 53.071 0 0 1 388.868 100.035 A 145.899 145.899 0 0 1 389.405 103.136 A 122.267 122.267 0 0 1 389.678 104.895 Q 389.91 106.473 390.078 107.732 A 128.324 128.324 0 0 1 390.218 108.81 Q 390.418 110.416 390.685 110.695 A 0.3 0.3 0 0 0 390.69 110.7 L 389.88 110.97 Q 389.636 111.092 389.172 111.104 A 4.014 4.014 0 0 1 389.07 111.105 L 388.26 111.105 A 10.605 10.605 0 0 1 387.381 111.066 Q 386.933 111.029 386.436 110.955 A 18.549 18.549 0 0 1 386.1 110.903 A 12.6 12.6 0 0 0 385.185 110.787 Q 384.235 110.7 382.995 110.7 L 378.54 110.7 A 90.01 90.01 0 0 1 372.873 110.529 A 70.783 70.783 0 0 1 368.82 110.16 A 74.328 74.328 0 0 1 365.365 109.636 Q 363.799 109.358 362.425 109.032 A 41.111 41.111 0 0 1 361.53 108.81 A 45.506 45.506 0 0 0 364.049 109.278 Q 365.459 109.502 367.076 109.685 A 92.064 92.064 0 0 0 369.09 109.89 A 86.217 86.217 0 0 0 374.192 110.327 A 67.711 67.711 0 0 0 377.865 110.43 Q 379.62 110.43 381.578 110.362 Q 383.535 110.295 385.83 110.295 L 390.285 110.295 A 1.411 1.411 0 0 0 389.868 110.001 A 1.268 1.268 0 0 0 389.34 109.89 L 389.07 109.89 Q 388.53 100.575 386.64 92.07 A 48.855 48.855 0 0 0 383.688 82.935 A 40.328 40.328 0 0 0 380.565 77.153 Q 376.38 70.74 369.63 66.892 Q 362.88 63.045 352.755 63.045 Q 349.92 63.045 347.085 63.45 A 71.586 71.586 0 0 0 342.02 64.365 A 78.569 78.569 0 0 0 341.28 64.53 A 1.217 1.217 0 0 0 341.419 64.365 Q 341.488 64.267 341.52 64.169 A 0.566 0.566 0 0 0 341.55 63.99 A 1.736 1.736 0 0 0 341.301 63.104 A 2.478 2.478 0 0 0 341.01 62.707 Q 340.47 62.1 340.47 61.425 A 0.924 0.924 0 0 1 340.676 60.867 Q 341.06 60.356 342.157 59.873 A 7.444 7.444 0 0 1 343.08 59.551 Q 345.056 58.982 349.38 58.455 Q 349.165 58.24 349.078 57.852 A 2.207 2.207 0 0 1 349.043 57.645 A 14.513 14.513 0 0 1 349.013 57.392 Q 348.985 57.128 348.977 56.948 A 2.835 2.835 0 0 1 348.975 56.835 A 265.088 265.088 0 0 1 345.533 56.814 Q 341.812 56.765 339.159 56.606 A 66.644 66.644 0 0 1 337.635 56.498 A 15.587 15.587 0 0 1 336.31 56.335 Q 333.585 55.869 333.585 54.54 Q 333.585 53.947 334.887 52.938 A 13.563 13.563 0 0 1 335.273 52.65 A 12.819 12.819 0 0 1 336.6 51.823 Q 337.314 51.432 338.18 51.048 A 32.334 32.334 0 0 1 340.065 50.287 A 38.617 38.617 0 0 1 342.913 49.367 Q 345.021 48.77 347.558 48.262 A 43.852 43.852 0 0 1 352.505 47.578 A 58.214 58.214 0 0 1 357.345 47.385 A 57.328 57.328 0 0 1 365.301 47.909 Q 369.648 48.518 373.331 49.838 A 33.05 33.05 0 0 1 375.165 50.558 A 40.612 40.612 0 0 1 383.43 55.245 A 34.838 34.838 0 0 1 387.653 58.928 Q 392.715 64.125 395.888 70.74 Q 399.06 77.355 401.018 84.037 A 101.586 101.586 0 0 1 403.382 93.821 A 88.54 88.54 0 0 1 403.92 96.997 A 586.926 586.926 0 0 0 404.61 101.468 Q 404.889 103.232 405.156 104.831 A 319.38 319.38 0 0 0 405.675 107.865 Q 405.675 108.675 405.743 109.485 A 17.582 17.582 0 0 1 405.784 110.13 Q 405.81 110.7 405.81 111.375 A 18.274 18.274 0 0 1 405.519 114.715 A 13.508 13.508 0 0 1 404.393 118.192 Q 402.975 121.095 400.478 123.052 A 17.293 17.293 0 0 1 395.786 125.647 A 20.237 20.237 0 0 1 394.673 126.022 A 23.451 23.451 0 0 1 389.044 126.996 A 27.236 27.236 0 0 1 387.585 127.035 A 161.643 161.643 0 0 1 385.99 127.027 Q 383.793 127.005 380.867 126.927 A 496.44 496.44 0 0 1 379.89 126.9 A 73.475 73.475 0 0 1 372.479 126.324 A 65.483 65.483 0 0 1 370.845 126.09 A 42.942 42.942 0 0 0 367.288 125.407 A 53.922 53.922 0 0 0 364.635 125.077 A 54.609 54.609 0 0 1 358.188 124.029 A 59.983 59.983 0 0 1 357.75 123.93 Q 354.24 123.12 350.933 121.635 Q 347.625 120.15 344.993 117.112 A 18.613 18.613 0 0 1 342.63 113.619 Q 341.715 111.892 341.006 109.815 A 32.041 32.041 0 0 1 340.807 109.215 A 28.937 28.937 0 0 1 339.832 105.027 Q 339.48 102.85 339.343 100.32 A 62.664 62.664 0 0 1 339.255 96.93 A 24.726 24.726 0 0 1 339.673 92.245 Q 340.419 88.383 342.495 85.657 Q 345.735 81.405 350.258 79.042 A 30.362 30.362 0 0 1 358.033 76.209 A 28.145 28.145 0 0 1 359.505 75.937 A 82.273 82.273 0 0 1 362.287 75.546 Q 365.066 75.206 367.068 75.195 A 24.235 24.235 0 0 1 367.2 75.195 Q 370.586 75.195 371.914 75.628 A 2.938 2.938 0 0 1 372.195 75.735 Q 373.41 76.275 373.41 76.815 A 2.016 2.016 0 0 1 373.391 77.1 Q 373.359 77.321 373.275 77.49 Q 370.256 77.49 365.725 77.706 A 303.525 303.525 0 0 0 364.635 77.76 Q 359.37 78.03 354.443 79.515 A 24.254 24.254 0 0 0 348.963 81.901 A 20.932 20.932 0 0 0 346.005 84.037 A 9.891 9.891 0 0 0 342.743 89.846 A 14.699 14.699 0 0 0 342.495 92.61 A 20.545 20.545 0 0 1 343.761 88.897 Q 344.783 86.667 346.295 85.042 A 12.688 12.688 0 0 1 346.613 84.713 Q 349.515 81.81 353.295 80.392 Q 357.075 78.975 361.058 78.637 Q 365.04 78.3 368.28 78.3 L 372.87 78.3 Q 372.509 78.661 372.389 79.022 A 1.132 1.132 0 0 0 372.33 79.38 A 1.038 1.038 0 0 0 372.585 80.059 A 1.668 1.668 0 0 0 372.87 80.325 L 378.135 80.325 Q 379.476 80.576 380.349 81.062 A 3.601 3.601 0 0 1 381.24 81.743 A 5.499 5.499 0 0 1 381.675 82.266 Q 382.115 82.873 382.175 83.399 A 1.451 1.451 0 0 1 382.185 83.565 Q 382.185 84.751 381.028 85.679 A 4.851 4.851 0 0 1 380.97 85.725 A 6.691 6.691 0 0 1 380.158 86.257 Q 379.239 86.777 377.829 87.297 A 30.524 30.524 0 0 1 376.92 87.615 A 162.008 162.008 0 0 1 375.211 87.607 Q 373.567 87.589 372.407 87.536 A 34.392 34.392 0 0 1 371.453 87.48 A 52.624 52.624 0 0 0 369.714 87.379 A 38.564 38.564 0 0 0 368.145 87.345 A 69.235 69.235 0 0 0 364.782 87.423 Q 362.737 87.522 360.99 87.75 A 17.839 17.839 0 0 0 358.454 88.259 Q 357.129 88.633 356.033 89.203 A 10.702 10.702 0 0 0 355.725 89.37 Q 353.565 90.585 352.485 92.88 Q 351.693 94.563 351.482 97.045 A 22.565 22.565 0 0 0 351.405 98.955 A 38.118 38.118 0 0 0 351.504 101.802 Q 351.709 104.537 352.344 106.301 A 8.242 8.242 0 0 0 352.688 107.122 A 8.805 8.805 0 0 0 354.155 109.294 A 7.345 7.345 0 0 0 356.333 110.903 Q 358.695 112.05 362.07 112.32 Q 365.445 112.59 369.63 113.535 Q 372.06 113.805 374.49 113.872 Q 376.92 113.94 379.35 113.94 Z M 354.24 120.285 Q 358.02 121.77 362.003 122.58 Q 365.985 123.39 369.9 123.66 A 78.653 78.653 0 0 0 374.134 123.987 A 62.416 62.416 0 0 0 377.19 124.065 Q 374.49 123.795 371.79 123.12 A 578.764 578.764 0 0 1 369.439 122.555 Q 368.367 122.295 367.416 122.06 A 322.88 322.88 0 0 1 366.795 121.905 Q 364.5 121.365 362.273 121.162 A 57.809 57.809 0 0 1 358.271 120.653 A 64.159 64.159 0 0 1 357.683 120.555 A 27.581 27.581 0 0 1 353.648 119.535 A 31.043 31.043 0 0 1 352.89 119.273 Q 350.46 118.395 348.03 116.64 A 18.196 18.196 0 0 0 352.249 119.438 A 22.283 22.283 0 0 0 354.24 120.285 Z M 358.56 108.135 L 358.965 108.135 L 358.56 108.135 Q 357.969 107.958 357.482 107.703 A 4.397 4.397 0 0 1 356.4 106.92 Q 355.455 105.975 355.59 106.11 L 355.05 105.84 A 1.352 1.352 0 0 0 355.407 106.77 Q 355.608 106.994 355.92 107.177 A 3.748 3.748 0 0 0 356.535 107.46 Q 357.548 107.764 358.18 107.992 A 11.709 11.709 0 0 1 358.56 108.135 Z" id="3" vector-effect="non-scaling-stroke"/>
		<path d="M 423.63 51.57 L 423.63 48.195 Q 423.63 46.44 423.495 44.685 A 1.826 1.826 0 0 0 423.742 44.894 Q 424.023 45.09 424.305 45.09 A 1.659 1.659 0 0 0 424.844 44.995 Q 425.056 44.922 425.278 44.794 A 3.274 3.274 0 0 0 425.453 44.685 A 2.926 2.926 0 0 1 425.862 44.454 Q 426.102 44.345 426.33 44.305 A 1.529 1.529 0 0 1 426.6 44.28 A 0.961 0.961 0 0 1 427.268 44.571 Q 427.615 44.896 427.901 45.587 A 7.563 7.563 0 0 1 428.153 46.305 Q 428.68 48.063 428.749 53.487 A 135.238 135.238 0 0 1 428.76 55.215 L 429.975 55.215 A 93.51 93.51 0 0 1 430.469 50.793 Q 431.073 46.409 432.005 43.399 A 27.032 27.032 0 0 1 432.068 43.2 A 23.677 23.677 0 0 1 432.601 41.686 Q 433.763 38.745 434.97 38.745 Q 435.645 38.745 437.13 41.647 Q 438.615 44.55 438.615 50.76 L 440.1 48.33 A 70.527 70.527 0 0 1 442.088 46.084 A 85.983 85.983 0 0 1 443.407 44.685 Q 445.23 42.795 447.525 41.31 A 23.797 23.797 0 0 1 451.271 39.348 A 27.717 27.717 0 0 1 452.655 38.812 A 16.943 16.943 0 0 1 456.101 37.994 A 22.751 22.751 0 0 1 459.135 37.8 A 26.173 26.173 0 0 1 465.508 38.544 A 20.876 20.876 0 0 1 471.353 40.972 Q 476.55 44.145 480.06 49.207 A 45.477 45.477 0 0 1 484.604 57.561 A 53.204 53.204 0 0 1 485.798 60.682 Q 488.025 67.095 489.24 73.642 Q 490.455 80.19 490.86 86.265 A 217.748 217.748 0 0 1 491.107 90.574 Q 491.206 92.69 491.243 94.539 A 105.925 105.925 0 0 1 491.265 96.66 A 51.114 51.114 0 0 1 491.248 98.017 Q 491.176 100.714 490.793 101.317 A 1.705 1.705 0 0 1 490.054 101.948 Q 489.656 102.134 489.105 102.195 Q 488.835 91.8 487.755 81 Q 486.675 70.2 482.625 60.075 A 95.791 95.791 0 0 1 486.612 75.883 A 85.185 85.185 0 0 1 487.283 81.067 Q 488.295 91.395 488.295 101.79 A 4.508 4.508 0 0 0 487.706 101.543 Q 487.232 101.385 486.81 101.385 A 1.288 1.288 0 0 0 485.891 101.764 A 1.69 1.69 0 0 0 485.865 101.79 A 19.425 19.425 0 0 0 485.918 103.193 A 23.392 23.392 0 0 0 486 104.085 Q 486.135 105.165 486.203 106.245 A 35.14 35.14 0 0 1 486.261 107.542 A 28.647 28.647 0 0 1 486.27 108.27 Q 485.628 110.73 484.986 112.089 A 7.313 7.313 0 0 1 484.65 112.725 A 6.597 6.597 0 0 1 484.308 113.243 Q 483.7 114.068 483.174 114.075 A 0.677 0.677 0 0 1 483.165 114.075 A 1.549 1.549 0 0 1 481.99 113.546 A 2.307 2.307 0 0 1 481.815 113.332 Q 481.32 112.652 480.881 111.687 A 13.685 13.685 0 0 1 480.803 111.51 Q 480.33 110.43 479.858 109.147 A 11.826 11.826 0 0 0 478.724 106.878 A 13.234 13.234 0 0 0 478.575 106.65 A 291.893 291.893 0 0 0 478.702 105.557 Q 478.854 104.22 478.95 103.246 A 87.261 87.261 0 0 0 478.98 102.937 Q 479.072 101.974 479.101 101.229 A 16.66 16.66 0 0 0 479.115 100.575 A 245.178 245.178 0 0 0 479.096 97.632 Q 479.064 95.006 478.98 91.8 A 127.323 127.323 0 0 0 478.512 83.839 A 146.478 146.478 0 0 0 478.238 81.067 Q 477.63 75.465 476.348 69.862 A 48.179 48.179 0 0 0 474.613 63.963 A 38.146 38.146 0 0 0 472.838 59.872 Q 470.61 55.485 467.235 52.717 A 12.173 12.173 0 0 0 460.009 49.974 A 15.515 15.515 0 0 0 459.135 49.95 Q 455.895 49.95 453.398 52.11 A 17.882 17.882 0 0 0 450.475 55.376 A 22.695 22.695 0 0 0 449.078 57.645 A 46.028 46.028 0 0 0 446.61 63.049 A 53.021 53.021 0 0 0 445.905 65.002 A 78.554 78.554 0 0 0 444.428 69.849 A 65.704 65.704 0 0 0 443.745 72.63 Q 444.96 68.85 446.243 64.935 A 41.862 41.862 0 0 1 448.261 59.871 A 35.973 35.973 0 0 1 449.348 57.78 A 21.849 21.849 0 0 1 451.523 54.579 A 17.488 17.488 0 0 1 453.6 52.447 Q 456.03 50.355 459.27 50.355 A 12.778 12.778 0 0 1 463.224 50.947 A 11.004 11.004 0 0 1 466.493 52.65 A 18.81 18.81 0 0 1 470.662 57.06 A 22.473 22.473 0 0 1 471.623 58.59 A 32.902 32.902 0 0 1 473.922 63.542 A 40.756 40.756 0 0 1 474.998 66.893 Q 476.28 71.55 476.955 76.342 A 99.603 99.603 0 0 1 477.774 84.523 A 90.198 90.198 0 0 1 477.833 85.657 A 239.676 239.676 0 0 1 477.956 88.869 Q 478.035 91.395 478.035 93.42 Q 478.035 95.985 477.968 98.55 Q 477.9 101.115 477.765 103.815 A 86.355 86.355 0 0 1 476.104 94.476 A 95.695 95.695 0 0 1 475.943 93.082 Q 475.335 87.48 474.66 82.012 Q 473.985 76.545 472.973 71.482 A 47.393 47.393 0 0 0 471.012 64.447 A 41.569 41.569 0 0 0 470.07 62.1 L 471.015 60.75 A 21.626 21.626 0 0 0 469.978 58.661 Q 469.402 57.651 468.775 56.858 A 10.349 10.349 0 0 0 467.977 55.958 A 16.749 16.749 0 0 0 466.618 54.731 Q 465.878 54.139 465.152 53.72 A 9.201 9.201 0 0 0 464.67 53.46 A 11.325 11.325 0 0 0 463.41 52.917 Q 462.507 52.596 461.7 52.515 A 71.735 71.735 0 0 0 461.155 52.462 Q 460.261 52.38 459.945 52.38 A 8.561 8.561 0 0 0 454.124 54.642 A 11.035 11.035 0 0 0 453.938 54.81 Q 451.47 57.088 449.595 60.849 A 30.381 30.381 0 0 0 449.348 61.358 Q 447.39 65.475 445.905 70.875 A 129.172 129.172 0 0 0 443.687 80.372 A 144.656 144.656 0 0 0 443.34 82.215 Q 442.26 88.155 441.45 94.162 Q 440.64 100.17 440.1 105.435 L 441.315 105.435 A 706.177 706.177 0 0 0 442.007 100.609 A 932.176 932.176 0 0 0 442.733 95.31 Q 443.475 89.775 444.353 84.037 Q 445.23 78.3 446.445 72.9 A 76.437 76.437 0 0 1 447.869 67.467 A 58.588 58.588 0 0 1 449.348 63.18 Q 451.035 58.86 453.33 56.16 A 8.796 8.796 0 0 1 455.685 54.158 A 7.842 7.842 0 0 1 458.595 53.19 Q 455.625 53.865 453.6 56.97 A 28.311 28.311 0 0 0 451.694 60.334 Q 450.681 62.425 449.82 64.935 A 94.413 94.413 0 0 0 447.938 71.143 A 116.469 116.469 0 0 0 446.918 75.262 A 649.483 649.483 0 0 0 445.108 83.4 A 565.083 565.083 0 0 0 444.555 85.995 L 441.855 105.705 A 44.427 44.427 0 0 0 441.434 107.281 Q 441.256 108.004 441.126 108.654 A 25.088 25.088 0 0 0 441.045 109.08 L 440.505 111.915 Q 440.235 113.265 439.965 114.817 A 116.084 116.084 0 0 1 439.703 116.266 Q 439.518 117.256 439.29 118.395 L 438.885 120.015 L 438.075 120.015 L 424.44 115.425 Q 423.765 115.29 423.428 115.02 Q 423.09 114.75 422.685 114.345 A 2.843 2.843 0 0 1 422.742 113.801 Q 422.795 113.53 422.897 113.226 A 6.728 6.728 0 0 1 423.09 112.725 Q 423.495 111.78 423.495 110.7 Q 423.9 107.46 424.035 106.042 Q 424.151 104.824 424.167 103.855 A 18.445 18.445 0 0 0 424.17 103.545 Q 424.17 97.875 423.833 91.327 A 863.697 863.697 0 0 0 423.288 81.772 A 772.32 772.32 0 0 0 423.09 78.705 Q 423.09 77.406 423.058 75.787 A 233.34 233.34 0 0 0 423.023 74.25 A 46.526 46.526 0 0 0 422.961 72.752 Q 422.88 71.382 422.723 70.421 A 12.492 12.492 0 0 0 422.685 70.2 Q 423.09 65.475 423.36 60.885 Q 423.63 56.295 423.63 51.57 Z M 439.02 55.35 L 439.02 55.485 A 34.222 34.222 0 0 1 441.447 51.287 A 45.819 45.819 0 0 1 444.285 47.52 Q 447.525 43.74 452.925 41.85 Q 451.17 42.39 449.55 42.93 Q 447.66 43.605 446.175 45.09 Q 443.475 47.385 441.923 50.017 Q 440.37 52.65 439.02 55.35 Z M 460.715 40.501 A 20.487 20.487 0 0 0 460.485 40.5 A 108.38 108.38 0 0 1 466.17 42.081 A 91.92 91.92 0 0 1 468.585 42.863 A 14.491 14.491 0 0 1 472.487 44.93 Q 474.158 46.153 475.74 47.925 A 15.503 15.503 0 0 0 470.191 43.29 A 18.177 18.177 0 0 0 469.733 43.065 A 31.511 31.511 0 0 0 464.688 41.17 A 27.167 27.167 0 0 0 462.375 40.635 Q 461.765 40.513 460.715 40.501 Z M 478.374 51.498 A 31.297 31.297 0 0 0 476.01 48.195 A 18.465 18.465 0 0 1 477.996 50.255 A 13.672 13.672 0 0 1 479.79 53.055 A 169.846 169.846 0 0 1 481.039 55.755 A 221.217 221.217 0 0 1 482.355 58.725 A 341.062 341.062 0 0 0 482.005 58.066 Q 481.469 57.058 480.86 55.93 A 605.113 605.113 0 0 0 479.52 53.46 A 38.091 38.091 0 0 0 478.374 51.498 Z M 467.37 57.24 L 466.02 56.025 A 8.39 8.39 0 0 0 464.21 55 A 9.931 9.931 0 0 0 463.523 54.742 A 44.567 44.567 0 0 1 462.374 54.341 Q 461.86 54.153 461.286 53.933 A 93.089 93.089 0 0 1 460.08 53.46 L 459.945 53.19 Q 462.24 53.325 463.995 54.202 A 7.595 7.595 0 0 1 465.505 55.216 Q 466.161 55.772 466.796 56.52 A 15.148 15.148 0 0 1 467.37 57.24 Z" id="4" vector-effect="non-scaling-stroke"/>
		<path d="M 604.8 106.785 L 605.205 108.405 Q 607.23 108 610.335 107.122 Q 613.44 106.245 616.343 104.895 A 18.923 18.923 0 0 0 619.914 102.748 A 16.573 16.573 0 0 0 621.337 101.52 A 7.139 7.139 0 0 0 622.786 99.583 A 6.156 6.156 0 0 0 623.43 96.795 A 9.663 9.663 0 0 0 620.617 89.933 A 12.467 12.467 0 0 0 620.595 89.91 A 25.14 25.14 0 0 0 617.03 86.843 A 33.805 33.805 0 0 0 613.373 84.577 A 52.549 52.549 0 0 0 607.758 81.986 A 66.205 66.205 0 0 0 603.45 80.46 Q 597.915 78.705 592.583 77.355 Q 587.25 76.005 582.525 74.925 A 134.511 134.511 0 0 1 579.756 74.263 Q 577.006 73.573 575.092 72.942 A 38.78 38.78 0 0 1 574.965 72.9 L 574.965 73.71 A 42.922 42.922 0 0 0 577.121 74.46 Q 579.378 75.184 582.39 75.937 Q 586.98 77.085 592.313 78.435 Q 597.645 79.785 603.045 81.472 A 63.915 63.915 0 0 1 609.325 83.787 A 52.346 52.346 0 0 1 612.833 85.455 A 31.086 31.086 0 0 1 616.59 87.755 A 22.935 22.935 0 0 1 619.988 90.72 A 10.552 10.552 0 0 1 622.014 93.774 A 9.327 9.327 0 0 1 622.755 97.47 A 4.361 4.361 0 0 1 621.663 100.351 A 6.639 6.639 0 0 1 620.73 101.25 A 18.154 18.154 0 0 1 617.909 103.09 A 22.698 22.698 0 0 1 615.938 104.017 Q 613.17 105.165 610.335 105.84 A 173.164 173.164 0 0 1 609.002 106.152 Q 607.714 106.448 606.785 106.636 A 39.474 39.474 0 0 1 606.015 106.785 Q 607.77 106.38 610.538 105.637 Q 613.305 104.895 615.938 103.68 A 19.797 19.797 0 0 0 618.768 102.094 A 16.192 16.192 0 0 0 620.46 100.777 A 6.067 6.067 0 0 0 621.675 99.321 A 4.916 4.916 0 0 0 622.35 96.795 A 7.972 7.972 0 0 0 619.826 90.858 A 10.32 10.32 0 0 0 619.38 90.45 Q 616.41 87.885 611.55 85.86 A 72.384 72.384 0 0 0 606.353 83.936 A 97.444 97.444 0 0 0 600.48 82.215 A 509.562 509.562 0 0 1 588.54 78.94 A 557.036 557.036 0 0 1 587.723 78.705 Q 581.175 76.815 574.965 74.385 A 54.787 54.787 0 0 1 574.868 74.347 Q 568.717 71.927 563.895 68.31 Q 559.035 64.665 556.065 59.67 A 20.664 20.664 0 0 1 553.548 52.83 A 28.249 28.249 0 0 1 553.095 47.655 Q 553.095 40.77 556.403 35.977 Q 559.71 31.185 564.908 28.147 A 38.709 38.709 0 0 1 576.121 23.803 A 43.23 43.23 0 0 1 576.315 23.76 A 58.601 58.601 0 0 1 585.218 22.505 A 51.406 51.406 0 0 1 588.33 22.41 Q 596.835 22.41 605.003 24.84 Q 613.17 27.27 620.46 31.59 Q 619.771 31.82 619.57 32.196 A 0.696 0.696 0 0 0 619.515 32.332 A 6.433 6.433 0 0 0 619.356 33.047 A 7.514 7.514 0 0 0 619.313 33.345 A 3.361 3.361 0 0 1 619.212 33.849 A 2.539 2.539 0 0 1 619.043 34.29 Q 618.875 34.625 618.386 34.683 A 1.872 1.872 0 0 1 618.165 34.695 Q 617.625 34.695 616.073 34.222 A 85.586 85.586 0 0 1 614.053 33.579 A 104.628 104.628 0 0 1 612.765 33.142 A 320.492 320.492 0 0 0 610.208 32.269 A 282.273 282.273 0 0 0 609.39 31.995 A 53.767 53.767 0 0 1 608.69 31.757 Q 607.827 31.456 607.395 31.263 A 4.246 4.246 0 0 1 607.23 31.185 L 606.825 32.4 Q 607.912 32.883 609.593 33.744 A 116.002 116.002 0 0 1 609.998 33.953 Q 611.955 34.965 613.778 36.382 Q 615.6 37.8 616.883 39.42 Q 618.165 41.04 618.165 42.66 A 2.757 2.757 0 0 1 618.09 43.333 Q 617.869 44.209 616.994 44.376 A 2.397 2.397 0 0 1 616.545 44.415 Q 615.021 44.415 613.077 43.804 A 20.899 20.899 0 0 1 611.753 43.335 Q 608.985 42.255 605.61 40.972 A 81.499 81.499 0 0 0 600.514 39.234 A 94.881 94.881 0 0 0 598.388 38.61 Q 594.54 37.53 590.625 37.53 A 34.36 34.36 0 0 0 588.305 37.614 Q 586.608 37.729 584.618 38.002 Q 581.175 38.475 578.003 39.757 Q 574.83 41.04 572.67 43.267 A 7.586 7.586 0 0 0 570.529 48.241 A 10.062 10.062 0 0 0 570.51 48.87 Q 570.51 51.975 573.413 54.135 Q 575.669 55.814 579.067 57.248 A 45.376 45.376 0 0 0 581.108 58.05 A 108.318 108.318 0 0 0 586.221 59.771 A 148.058 148.058 0 0 0 591.975 61.425 A 360.024 360.024 0 0 1 602.865 64.518 A 396.18 396.18 0 0 1 604.463 65.002 Q 610.875 66.96 616.95 69.525 Q 623.025 72.09 627.818 75.735 Q 632.61 79.38 635.513 84.375 Q 638.415 89.37 638.415 96.12 A 27.086 27.086 0 0 1 637.969 101.16 Q 637.318 104.6 635.715 107.325 Q 633.015 111.915 628.56 114.952 A 35.012 35.012 0 0 1 620.857 118.875 A 40.914 40.914 0 0 1 618.435 119.678 Q 612.765 121.365 606.758 122.242 Q 600.75 123.12 594.878 123.322 Q 589.005 123.525 584.28 123.525 L 570.78 123.525 A 56.594 56.594 0 0 1 570.118 123.521 Q 569.042 123.508 567.473 123.457 Q 565.38 123.39 563.355 123.187 A 18.042 18.042 0 0 1 561.686 122.946 Q 560.68 122.749 559.845 122.445 Q 558.811 122.069 558.497 121.562 A 0.873 0.873 0 0 1 558.36 121.095 L 558.495 120.42 Q 564.03 120.69 569.43 120.892 Q 574.83 121.095 580.365 121.095 L 590.625 121.095 Q 595.215 120.96 599.805 120.555 L 595.215 120.825 L 589.68 120.825 L 584.28 120.825 Q 571.59 120.825 559.305 120.015 A 19.888 19.888 0 0 0 559.417 119.546 Q 559.575 118.84 559.575 118.53 Q 559.575 117.99 559.305 117.45 A 3.007 3.007 0 0 0 559.117 117.457 Q 558.888 117.471 558.563 117.517 Q 558.201 117.569 557.72 117.581 A 12.124 12.124 0 0 1 557.415 117.585 A 38.563 38.563 0 0 1 555.846 117.551 A 52.624 52.624 0 0 1 554.108 117.45 Q 552.285 117.315 550.598 116.91 A 11.211 11.211 0 0 1 549.224 116.491 Q 548.513 116.22 547.932 115.868 A 6.621 6.621 0 0 1 547.762 115.763 Q 546.615 115.02 546.615 113.94 A 1.445 1.445 0 0 1 546.89 113.106 Q 547.043 112.884 547.283 112.674 A 3.55 3.55 0 0 1 547.56 112.455 A 10.202 10.202 0 0 1 548.721 111.743 A 13.41 13.41 0 0 1 549.788 111.24 Q 551.07 110.7 552.353 110.295 A 55.809 55.809 0 0 0 552.956 110.101 Q 553.605 109.888 554.054 109.719 A 13.055 13.055 0 0 0 554.31 109.62 Q 560.79 110.43 567.27 110.97 Q 573.75 111.51 580.23 111.51 A 230.658 230.658 0 0 0 581.563 111.506 Q 583.06 111.497 585.059 111.47 A 839.07 839.07 0 0 0 586.98 111.442 Q 591.3 111.375 596.43 110.97 Q 601.56 110.565 606.825 109.687 A 56.525 56.525 0 0 0 612.449 108.465 A 45.408 45.408 0 0 0 616.41 107.19 Q 620.425 105.684 623.041 103.479 A 15.966 15.966 0 0 0 623.43 103.14 A 7.794 7.794 0 0 0 626.119 97.516 A 9.546 9.546 0 0 0 626.13 97.065 A 11.812 11.812 0 0 0 625.701 93.834 A 10.234 10.234 0 0 0 624.848 91.732 Q 623.565 89.37 621.473 87.547 Q 619.38 85.725 616.815 84.51 A 13.857 13.857 0 0 0 614.924 83.616 A 15.213 15.213 0 0 0 614.79 83.565 Q 615.87 84.105 616.815 84.645 Q 619.245 85.995 621.203 87.952 Q 623.16 89.91 624.375 92.272 A 11.019 11.019 0 0 1 625.523 96.246 A 13.556 13.556 0 0 1 625.59 97.605 Q 625.59 100.845 623.228 103.072 A 16.477 16.477 0 0 1 620.336 105.23 Q 618.915 106.075 617.207 106.763 A 26.718 26.718 0 0 1 617.153 106.785 A 38.996 38.996 0 0 1 612.195 108.378 A 48.164 48.164 0 0 1 608.918 109.08 Q 604.395 109.89 599.94 110.295 Q 595.485 110.7 591.705 110.767 A 627.819 627.819 0 0 1 589.916 110.797 Q 588.176 110.823 586.866 110.831 A 177.695 177.695 0 0 1 585.765 110.835 Q 578.88 110.835 571.928 110.362 Q 564.975 109.89 558.09 109.215 Q 560.52 108.54 563.018 108.202 Q 565.515 107.865 568.08 107.865 Q 572.4 107.865 576.585 107.932 Q 580.77 108 584.955 108 Q 589.95 108 594.81 107.797 A 86.316 86.316 0 0 0 603.522 106.978 A 95.434 95.434 0 0 0 604.8 106.785 Z M 624.805 113.72 A 24.853 24.853 0 0 0 629.505 110.43 A 19.478 19.478 0 0 1 629.226 110.751 Q 627.055 113.195 624.645 114.21 Q 622.35 115.29 619.92 116.1 Q 622.35 115.02 624.645 113.805 A 23.262 23.262 0 0 0 624.805 113.72 Z" id="6" vector-effect="non-scaling-stroke"/>
		<path d="M 697.68 113.94 L 707.4 113.94 Q 700.65 113.535 693.968 113.467 A 74.82 74.82 0 0 1 687.646 113.149 A 54.905 54.905 0 0 1 681.953 112.32 A 24.802 24.802 0 0 1 677.954 111.175 Q 675.276 110.143 673.313 108.54 A 8.57 8.57 0 0 1 670.47 104.058 Q 670.07 102.616 670.014 100.881 A 17.792 17.792 0 0 1 670.005 100.305 A 27.896 27.896 0 0 1 670.106 97.844 Q 670.325 95.386 671.015 93.787 A 7.445 7.445 0 0 1 671.153 93.488 Q 672.3 91.125 674.258 89.977 A 9.616 9.616 0 0 1 676.919 88.93 A 12.787 12.787 0 0 1 678.915 88.628 A 72.07 72.07 0 0 1 682.448 88.453 A 88.414 88.414 0 0 1 684.72 88.425 Q 688.5 88.425 692.415 88.83 Q 689.31 89.775 686.138 90.247 Q 682.965 90.72 680.265 91.192 A 32.262 32.262 0 0 0 678.045 91.658 Q 677.043 91.907 676.173 92.204 A 18.049 18.049 0 0 0 675.608 92.408 Q 674.232 92.929 673.49 93.751 A 3.35 3.35 0 0 0 672.975 94.5 L 672.975 100.575 L 671.895 101.115 A 96.548 96.548 0 0 0 672.161 102.697 Q 672.553 104.912 672.908 106.177 A 3.372 3.372 0 0 0 674.087 107.915 Q 674.55 108.288 675.176 108.583 A 7.313 7.313 0 0 0 675.54 108.742 A 12.388 12.388 0 0 0 676.963 109.209 Q 679.048 109.772 682.493 110.16 A 358.265 358.265 0 0 1 685.163 110.472 Q 688.2 110.838 692.403 111.383 A 1540.953 1540.953 0 0 1 696.465 111.915 L 706.185 111.915 A 51.1 51.1 0 0 0 707.073 111.908 Q 708.839 111.877 709.223 111.712 A 7.955 7.955 0 0 1 709.388 111.644 Q 709.644 111.541 709.768 111.517 A 0.342 0.342 0 0 1 709.83 111.51 L 708.615 104.22 A 67.5 67.5 0 0 0 708.311 101.655 A 49.217 49.217 0 0 0 707.94 99.36 Q 707.535 97.2 706.86 94.77 Q 706.725 95.175 706.05 95.175 A 46.589 46.589 0 0 1 706.949 98.769 A 53.071 53.071 0 0 1 707.198 100.035 A 145.899 145.899 0 0 1 707.735 103.136 A 122.267 122.267 0 0 1 708.008 104.895 Q 708.24 106.473 708.408 107.732 A 128.324 128.324 0 0 1 708.548 108.81 Q 708.748 110.416 709.015 110.695 A 0.3 0.3 0 0 0 709.02 110.7 L 708.21 110.97 Q 707.966 111.092 707.502 111.104 A 4.014 4.014 0 0 1 707.4 111.105 L 706.59 111.105 A 10.605 10.605 0 0 1 705.711 111.066 Q 705.263 111.029 704.766 110.955 A 18.549 18.549 0 0 1 704.43 110.903 A 12.6 12.6 0 0 0 703.515 110.787 Q 702.565 110.7 701.325 110.7 L 696.87 110.7 A 90.01 90.01 0 0 1 691.203 110.529 A 70.783 70.783 0 0 1 687.15 110.16 A 74.328 74.328 0 0 1 683.695 109.636 Q 682.129 109.358 680.755 109.032 A 41.111 41.111 0 0 1 679.86 108.81 A 45.506 45.506 0 0 0 682.379 109.278 Q 683.789 109.502 685.406 109.685 A 92.064 92.064 0 0 0 687.42 109.89 A 86.217 86.217 0 0 0 692.522 110.327 A 67.711 67.711 0 0 0 696.195 110.43 Q 697.95 110.43 699.908 110.362 Q 701.865 110.295 704.16 110.295 L 708.615 110.295 A 1.411 1.411 0 0 0 708.198 110.001 A 1.268 1.268 0 0 0 707.67 109.89 L 707.4 109.89 Q 706.86 100.575 704.97 92.07 A 48.855 48.855 0 0 0 702.018 82.935 A 40.328 40.328 0 0 0 698.895 77.153 Q 694.71 70.74 687.96 66.892 Q 681.21 63.045 671.085 63.045 Q 668.25 63.045 665.415 63.45 A 71.586 71.586 0 0 0 660.35 64.365 A 78.569 78.569 0 0 0 659.61 64.53 A 1.217 1.217 0 0 0 659.749 64.365 Q 659.818 64.267 659.85 64.169 A 0.566 0.566 0 0 0 659.88 63.99 A 1.736 1.736 0 0 0 659.631 63.104 A 2.478 2.478 0 0 0 659.34 62.707 Q 658.8 62.1 658.8 61.425 A 0.924 0.924 0 0 1 659.006 60.867 Q 659.39 60.356 660.487 59.873 A 7.444 7.444 0 0 1 661.41 59.551 Q 663.386 58.982 667.71 58.455 Q 667.495 58.24 667.408 57.852 A 2.207 2.207 0 0 1 667.373 57.645 A 14.513 14.513 0 0 1 667.343 57.392 Q 667.315 57.128 667.307 56.948 A 2.835 2.835 0 0 1 667.305 56.835 A 265.088 265.088 0 0 1 663.863 56.814 Q 660.142 56.765 657.489 56.606 A 66.644 66.644 0 0 1 655.965 56.498 A 15.587 15.587 0 0 1 654.64 56.335 Q 651.915 55.869 651.915 54.54 Q 651.915 53.947 653.217 52.938 A 13.563 13.563 0 0 1 653.603 52.65 A 12.819 12.819 0 0 1 654.93 51.823 Q 655.644 51.432 656.51 51.048 A 32.334 32.334 0 0 1 658.395 50.287 A 38.617 38.617 0 0 1 661.243 49.367 Q 663.351 48.77 665.888 48.262 A 43.852 43.852 0 0 1 670.835 47.578 A 58.214 58.214 0 0 1 675.675 47.385 A 57.328 57.328 0 0 1 683.631 47.909 Q 687.978 48.518 691.661 49.838 A 33.05 33.05 0 0 1 693.495 50.558 A 40.612 40.612 0 0 1 701.76 55.245 A 34.838 34.838 0 0 1 705.983 58.928 Q 711.045 64.125 714.218 70.74 Q 717.39 77.355 719.348 84.037 A 101.586 101.586 0 0 1 721.712 93.821 A 88.54 88.54 0 0 1 722.25 96.997 A 586.926 586.926 0 0 0 722.94 101.468 Q 723.219 103.232 723.486 104.831 A 319.38 319.38 0 0 0 724.005 107.865 Q 724.005 108.675 724.073 109.485 A 17.582 17.582 0 0 1 724.114 110.13 Q 724.14 110.7 724.14 111.375 A 18.274 18.274 0 0 1 723.849 114.715 A 13.508 13.508 0 0 1 722.723 118.192 Q 721.305 121.095 718.808 123.052 A 17.293 17.293 0 0 1 714.116 125.647 A 20.237 20.237 0 0 1 713.003 126.022 A 23.451 23.451 0 0 1 707.374 126.996 A 27.236 27.236 0 0 1 705.915 127.035 A 161.643 161.643 0 0 1 704.32 127.027 Q 702.123 127.005 699.197 126.927 A 496.44 496.44 0 0 1 698.22 126.9 A 73.475 73.475 0 0 1 690.809 126.324 A 65.483 65.483 0 0 1 689.175 126.09 A 42.942 42.942 0 0 0 685.618 125.407 A 53.922 53.922 0 0 0 682.965 125.077 A 54.609 54.609 0 0 1 676.518 124.029 A 59.983 59.983 0 0 1 676.08 123.93 Q 672.57 123.12 669.263 121.635 Q 665.955 120.15 663.323 117.112 A 18.613 18.613 0 0 1 660.96 113.619 Q 660.045 111.892 659.336 109.815 A 32.041 32.041 0 0 1 659.137 109.215 A 28.937 28.937 0 0 1 658.162 105.027 Q 657.81 102.85 657.673 100.32 A 62.664 62.664 0 0 1 657.585 96.93 A 24.726 24.726 0 0 1 658.003 92.245 Q 658.749 88.383 660.825 85.657 Q 664.065 81.405 668.588 79.042 A 30.362 30.362 0 0 1 676.363 76.209 A 28.145 28.145 0 0 1 677.835 75.937 A 82.273 82.273 0 0 1 680.617 75.546 Q 683.396 75.206 685.398 75.195 A 24.235 24.235 0 0 1 685.53 75.195 Q 688.916 75.195 690.244 75.628 A 2.938 2.938 0 0 1 690.525 75.735 Q 691.74 76.275 691.74 76.815 A 2.016 2.016 0 0 1 691.721 77.1 Q 691.689 77.321 691.605 77.49 Q 688.586 77.49 684.055 77.706 A 303.525 303.525 0 0 0 682.965 77.76 Q 677.7 78.03 672.773 79.515 A 24.254 24.254 0 0 0 667.293 81.901 A 20.932 20.932 0 0 0 664.335 84.037 A 9.891 9.891 0 0 0 661.073 89.846 A 14.699 14.699 0 0 0 660.825 92.61 A 20.545 20.545 0 0 1 662.091 88.897 Q 663.113 86.667 664.625 85.042 A 12.688 12.688 0 0 1 664.943 84.713 Q 667.845 81.81 671.625 80.392 Q 675.405 78.975 679.388 78.637 Q 683.37 78.3 686.61 78.3 L 691.2 78.3 Q 690.839 78.661 690.719 79.022 A 1.132 1.132 0 0 0 690.66 79.38 A 1.038 1.038 0 0 0 690.915 80.059 A 1.668 1.668 0 0 0 691.2 80.325 L 696.465 80.325 Q 697.806 80.576 698.679 81.062 A 3.601 3.601 0 0 1 699.57 81.743 A 5.499 5.499 0 0 1 700.005 82.266 Q 700.445 82.873 700.505 83.399 A 1.451 1.451 0 0 1 700.515 83.565 Q 700.515 84.751 699.358 85.679 A 4.851 4.851 0 0 1 699.3 85.725 A 6.691 6.691 0 0 1 698.488 86.257 Q 697.569 86.777 696.159 87.297 A 30.524 30.524 0 0 1 695.25 87.615 A 162.008 162.008 0 0 1 693.541 87.607 Q 691.897 87.589 690.737 87.536 A 34.392 34.392 0 0 1 689.783 87.48 A 52.624 52.624 0 0 0 688.044 87.379 A 38.564 38.564 0 0 0 686.475 87.345 A 69.235 69.235 0 0 0 683.112 87.423 Q 681.067 87.522 679.32 87.75 A 17.839 17.839 0 0 0 676.784 88.259 Q 675.459 88.633 674.363 89.203 A 10.702 10.702 0 0 0 674.055 89.37 Q 671.895 90.585 670.815 92.88 Q 670.023 94.563 669.812 97.045 A 22.565 22.565 0 0 0 669.735 98.955 A 38.118 38.118 0 0 0 669.834 101.802 Q 670.039 104.537 670.674 106.301 A 8.242 8.242 0 0 0 671.018 107.122 A 8.805 8.805 0 0 0 672.485 109.294 A 7.345 7.345 0 0 0 674.663 110.903 Q 677.025 112.05 680.4 112.32 Q 683.775 112.59 687.96 113.535 Q 690.39 113.805 692.82 113.872 Q 695.25 113.94 697.68 113.94 Z M 672.57 120.285 Q 676.35 121.77 680.333 122.58 Q 684.315 123.39 688.23 123.66 A 78.653 78.653 0 0 0 692.464 123.987 A 62.416 62.416 0 0 0 695.52 124.065 Q 692.82 123.795 690.12 123.12 A 578.764 578.764 0 0 1 687.769 122.555 Q 686.697 122.295 685.746 122.06 A 322.88 322.88 0 0 1 685.125 121.905 Q 682.83 121.365 680.603 121.162 A 57.809 57.809 0 0 1 676.601 120.653 A 64.159 64.159 0 0 1 676.013 120.555 A 27.581 27.581 0 0 1 671.978 119.535 A 31.043 31.043 0 0 1 671.22 119.273 Q 668.79 118.395 666.36 116.64 A 18.196 18.196 0 0 0 670.579 119.438 A 22.283 22.283 0 0 0 672.57 120.285 Z M 676.89 108.135 L 677.295 108.135 L 676.89 108.135 Q 676.299 107.958 675.812 107.703 A 4.397 4.397 0 0 1 674.73 106.92 Q 673.785 105.975 673.92 106.11 L 673.38 105.84 A 1.352 1.352 0 0 0 673.737 106.77 Q 673.938 106.994 674.25 107.177 A 3.748 3.748 0 0 0 674.865 107.46 Q 675.878 107.764 676.51 107.992 A 11.709 11.709 0 0 1 676.89 108.135 Z" id="7" vector-effect="non-scaling-stroke"/>
		<path d="M 743.04 108.135 L 743.85 106.65 A 27.924 27.924 0 0 1 742.435 103.784 Q 741.794 102.259 741.465 100.861 A 13.073 13.073 0 0 1 741.15 98.887 Q 740.88 95.445 740.61 92.07 L 742.905 68.445 Q 743.58 62.37 743.85 56.295 L 743.445 56.025 Q 742.365 62.37 741.69 68.175 Q 741.015 73.845 740.61 79.38 L 740.61 75.87 Q 741.42 69.66 742.095 63.652 Q 742.77 57.645 743.85 51.435 Q 744.93 45.225 746.618 38.475 A 126.355 126.355 0 0 1 748.879 30.582 A 161.599 161.599 0 0 1 751.14 24.03 Q 754.92 18.9 755.595 13.905 Q 756 13.905 756.405 14.04 A 1.645 1.645 0 0 0 756.639 14.096 Q 757.05 14.167 757.848 14.174 A 20.275 20.275 0 0 0 758.025 14.175 A 3.288 3.288 0 0 1 758.762 14.254 A 2.583 2.583 0 0 1 759.443 14.513 A 1.05 1.05 0 0 1 759.903 15.047 Q 759.986 15.245 760.022 15.499 A 3.068 3.068 0 0 1 760.05 15.93 Q 760.05 16.923 759.509 18.726 A 29.243 29.243 0 0 1 759.24 19.575 Q 759.51 19.575 760.05 19.777 A 5.637 5.637 0 0 0 760.303 19.866 Q 760.658 19.98 760.86 19.98 A 130.893 130.893 0 0 1 762.23 17.683 Q 763.332 15.879 764.303 14.445 A 9.695 9.695 0 0 1 765.027 13.495 Q 765.87 12.531 766.692 12.258 A 2.045 2.045 0 0 1 767.34 12.15 A 1.59 1.59 0 0 1 768.312 12.493 Q 768.555 12.675 768.78 12.954 A 4.041 4.041 0 0 1 769.028 13.298 A 3.617 3.617 0 0 1 769.427 14.178 Q 769.708 15.07 769.759 16.401 A 15.983 15.983 0 0 1 769.77 17.01 A 40.886 40.886 0 0 1 768.697 24.413 A 36.728 36.728 0 0 1 768.218 26.19 Q 766.935 30.51 765.45 34.56 Q 763.965 38.61 762.548 42.795 Q 761.13 46.98 760.455 51.57 Q 759.645 56.835 758.835 62.302 Q 758.025 67.77 757.35 73.17 A 3245.025 3245.025 0 0 0 756.375 81.042 A 2882.292 2882.292 0 0 0 756.068 83.565 Q 755.46 88.56 755.19 92.88 Q 755.19 96.795 756.405 100.98 A 12.64 12.64 0 0 0 756.794 101.568 Q 757.185 102.122 757.525 102.446 A 3.061 3.061 0 0 0 757.62 102.533 Q 758.16 103.005 759.51 103.005 Q 761.13 103.005 763.088 102.6 Q 764.718 102.263 766.021 102.206 A 11.789 11.789 0 0 1 766.53 102.195 Q 767.291 102.195 767.701 102.37 A 1.094 1.094 0 0 1 767.88 102.465 Q 768.285 102.735 768.555 103.41 Q 766.665 104.49 764.505 105.03 A 18.752 18.752 0 0 1 762.223 105.459 A 14.651 14.651 0 0 1 760.455 105.57 L 758.565 105.57 L 757.62 105.57 A 14.362 14.362 0 0 0 758.792 105.729 Q 759.361 105.785 760.013 105.812 A 32.76 32.76 0 0 0 761.4 105.84 A 16.54 16.54 0 0 0 766.403 105.039 A 20.535 20.535 0 0 0 768.555 104.22 A 2.994 2.994 0 0 0 768.739 105.286 A 2.691 2.691 0 0 0 769.365 106.245 A 2.491 2.491 0 0 0 769.555 106.171 Q 770.009 105.975 771.069 105.401 A 70.547 70.547 0 0 0 771.255 105.3 Q 772.214 104.777 773.003 104.592 A 3.582 3.582 0 0 1 773.82 104.49 Q 776.68 104.49 777.015 106.594 A 3.789 3.789 0 0 1 777.06 107.19 Q 777.06 107.595 776.79 108.405 Q 776.569 109.067 775.808 110.719 A 105.806 105.806 0 0 1 775.44 111.51 Q 774.769 111.51 774.098 112.065 A 4.029 4.029 0 0 0 773.82 112.32 Q 770.985 113.4 767.948 114.142 Q 764.91 114.885 761.67 114.885 A 25.16 25.16 0 0 1 756.381 114.364 Q 751.056 113.219 747.9 109.552 Q 744.228 105.286 743.494 97.952 A 38.757 38.757 0 0 1 743.31 94.095 Q 743.31 89.235 743.715 84.375 Q 744.12 79.65 744.255 75.6 Q 743.85 79.785 743.31 83.97 A 61.042 61.042 0 0 0 742.651 91.776 A 68.639 68.639 0 0 0 742.635 93.285 A 32.848 32.848 0 0 0 742.691 95.115 Q 742.744 96.065 742.848 97.16 A 79.871 79.871 0 0 0 743.108 99.495 A 21.185 21.185 0 0 0 745.239 106.405 A 24.024 24.024 0 0 0 745.47 106.852 A 15.911 15.911 0 0 0 748.823 111.141 A 20.631 20.631 0 0 0 751.275 113.063 Q 754.318 115.109 759.155 115.564 A 31.16 31.16 0 0 0 762.075 115.695 Q 765.315 115.695 768.353 114.952 Q 771.39 114.21 774.225 113.13 A 12.071 12.071 0 0 1 771.106 115.787 A 15.525 15.525 0 0 1 769.163 116.775 A 16.238 16.238 0 0 1 765.497 117.823 Q 763.823 118.106 761.924 118.124 A 27.327 27.327 0 0 1 761.67 118.125 Q 756.135 118.125 750.938 115.83 A 15.724 15.724 0 0 1 743.255 108.552 A 19.806 19.806 0 0 1 743.04 108.135 Z M 739.935 88.02 L 740.205 84.915 Q 740.34 83.295 740.475 82.08 A 73.184 73.184 0 0 0 740.412 83.156 Q 740.323 84.864 740.273 87.142 A 458.456 458.456 0 0 0 740.243 88.564 Q 740.205 90.551 740.205 91.665 L 740.205 97.065 Q 740.205 98.145 740.273 99.36 Q 740.34 100.575 740.475 101.655 A 23.995 23.995 0 0 1 739.821 97.697 A 22.102 22.102 0 0 1 739.8 97.402 A 65.06 65.06 0 0 1 739.678 94.621 A 55.63 55.63 0 0 1 739.665 93.42 A 32.512 32.512 0 0 1 739.669 92.914 Q 739.68 92.218 739.719 91.297 A 97.163 97.163 0 0 1 739.733 90.99 Q 739.8 89.505 739.935 88.02 Z M 752.355 92.88 L 752.355 94.77 A 15.097 15.097 0 0 0 752.406 95.988 A 18.66 18.66 0 0 0 752.49 96.795 L 752.49 95.85 A 7.84 7.84 0 0 1 752.524 95.141 A 10.527 10.527 0 0 1 752.625 94.365 Q 752.76 93.555 752.895 92.88 Q 752.895 89.775 753.3 86.805 Q 753.705 83.835 753.975 80.73 A 61.764 61.764 0 0 0 753.052 86.06 A 56.433 56.433 0 0 0 752.963 86.805 Q 752.625 89.775 752.355 92.88 Z M 740.475 81.945 L 740.475 81.54 A 0.609 0.609 0 0 0 740.545 81.458 Q 740.579 81.409 740.595 81.359 A 0.283 0.283 0 0 0 740.61 81.27 A 3.357 3.357 0 0 1 740.604 81.483 Q 740.581 81.839 740.475 81.945 Z" id="8" vector-effect="non-scaling-stroke"/>
		<path d="M 787.725 102.735 L 789.21 101.385 A 7.673 7.673 0 0 1 789.118 100.82 Q 789.082 100.528 789.076 100.266 A 4.465 4.465 0 0 1 789.075 100.17 L 789.075 98.82 Q 789.075 96.152 789.574 92.835 A 59.737 59.737 0 0 1 789.75 91.733 Q 790.425 87.75 791.303 83.632 Q 792.18 79.515 792.855 75.667 A 52.845 52.845 0 0 0 793.266 72.924 Q 793.431 71.57 793.493 70.37 A 26.953 26.953 0 0 0 793.53 68.985 L 791.91 68.58 A 128.393 128.393 0 0 1 791.622 71.583 Q 791.404 73.621 791.1 75.937 A 1181.315 1181.315 0 0 1 790.103 83.35 A 1299.723 1299.723 0 0 1 789.953 84.442 Q 789.345 88.83 788.805 93.15 Q 788.535 95.445 788.265 97.47 Q 788.535 93.69 788.94 89.37 Q 789.615 83.16 790.358 77.017 Q 791.1 70.875 791.775 64.935 Q 792.45 58.995 793.125 54 Q 793.125 52.102 794.015 49.906 A 16.143 16.143 0 0 1 794.138 49.613 Q 795.15 47.25 795.555 44.685 Q 796.082 44.861 796.495 44.922 A 2.802 2.802 0 0 0 796.905 44.955 L 797.85 44.955 Q 798.912 44.955 799.39 45.331 A 1.002 1.002 0 0 1 799.605 45.562 A 2.147 2.147 0 0 1 799.875 46.159 Q 800.01 46.626 800.01 47.25 L 800.01 47.925 L 801.225 48.33 A 12.163 12.163 0 0 1 802.366 46.558 A 9.23 9.23 0 0 1 803.79 45.09 A 6.352 6.352 0 0 1 804.856 44.374 Q 805.568 44.001 806.28 43.907 A 3.658 3.658 0 0 1 806.76 43.875 A 2.523 2.523 0 0 1 809.079 45.375 Q 810 47.089 810 50.76 A 40.558 40.558 0 0 1 809.71 55.501 A 49.965 49.965 0 0 1 809.258 58.522 A 45.781 45.781 0 0 0 808.527 65.573 A 41.697 41.697 0 0 0 808.515 66.555 L 808.515 68.31 A 45.746 45.746 0 0 1 808.216 73.403 A 59.607 59.607 0 0 1 807.57 77.692 Q 806.625 82.755 805.478 87.952 A 418.528 418.528 0 0 0 803.87 95.559 A 375.198 375.198 0 0 0 803.385 98.01 A 54.632 54.632 0 0 0 802.676 102.667 A 40.375 40.375 0 0 0 802.44 106.92 A 15.097 15.097 0 0 0 802.491 108.138 A 18.66 18.66 0 0 0 802.575 108.945 A 17.849 17.849 0 0 1 802.688 110.18 A 14.432 14.432 0 0 1 802.71 110.97 Q 802.71 112.995 801.968 113.467 A 2.936 2.936 0 0 1 800.967 113.862 A 4.117 4.117 0 0 1 800.145 113.94 A 58.455 58.455 0 0 0 800.126 112.51 Q 800.094 111.223 800.01 109.62 Q 799.884 107.225 799.876 105.301 A 62.39 62.39 0 0 1 799.875 105.03 Q 799.631 106.371 799.608 108.594 A 45.818 45.818 0 0 0 799.605 109.08 A 43.728 43.728 0 0 1 799.477 112.479 A 37.397 37.397 0 0 1 799.335 113.94 L 797.31 113.94 L 797.31 115.56 A 5.416 5.416 0 0 1 796.54 116.628 A 3.277 3.277 0 0 1 794.07 117.72 A 4.025 4.025 0 0 1 793.225 117.624 Q 792.612 117.492 791.91 117.18 A 8.551 8.551 0 0 1 791.075 116.756 Q 790.442 116.387 790.02 115.965 Q 790.391 113.366 790.731 110.161 A 246.072 246.072 0 0 0 791.032 107.122 Q 791.505 102.06 791.91 96.93 Q 792.315 91.8 792.72 86.872 Q 793.125 81.945 793.53 78.3 A 99.687 99.687 0 0 0 792.965 81.696 Q 792.705 83.433 792.47 85.362 A 168.035 168.035 0 0 0 792.315 86.67 A 1601.528 1601.528 0 0 0 791.252 96.234 A 1687.975 1687.975 0 0 0 791.235 96.39 Q 790.695 101.385 790.155 106.312 A 1771.504 1771.504 0 0 0 789.678 110.71 Q 789.425 113.075 789.21 115.155 A 4.919 4.919 0 0 1 787.996 114.036 A 4.074 4.074 0 0 1 787.185 111.51 A 95.328 95.328 0 0 1 787.193 110.215 Q 787.219 108.354 787.32 106.987 A 89.368 89.368 0 0 1 787.44 105.535 Q 787.498 104.894 787.569 104.194 A 157.834 157.834 0 0 1 787.725 102.735 Z M 819.72 14.445 L 816.615 17.55 Q 816.615 17.28 816.143 17.01 Q 815.67 16.74 815.4 16.74 Q 814.995 18.09 814.05 18.9 A 27.579 27.579 0 0 1 812.4 20.211 A 24.875 24.875 0 0 1 812.16 20.385 A 26.865 26.865 0 0 0 810.506 21.67 A 29.832 29.832 0 0 0 810.27 21.87 A 4.229 4.229 0 0 0 809.156 23.389 A 5.392 5.392 0 0 0 808.92 24.03 L 808.92 24.3 A 0.09 0.09 0 0 0 808.969 24.377 Q 809.061 24.435 809.325 24.435 L 816.075 18.09 L 813.51 20.655 A 164.183 164.183 0 0 1 810.047 24.014 A 182.093 182.093 0 0 1 809.528 24.502 Q 807.435 26.46 805.613 27.945 A 33.452 33.452 0 0 1 804.979 28.45 Q 803.814 29.352 803.443 29.424 A 0.309 0.309 0 0 1 803.385 29.43 L 803.25 29.295 Q 802.305 29.025 801.293 29.025 A 16.616 16.616 0 0 1 799.502 28.925 A 18.564 18.564 0 0 1 799.2 28.89 A 7.841 7.841 0 0 0 799.075 27.524 A 9.948 9.948 0 0 0 798.862 26.595 A 14.24 14.24 0 0 1 798.699 25.954 Q 798.557 25.332 798.531 24.895 A 3.159 3.159 0 0 1 798.525 24.705 A 0.972 0.972 0 0 1 798.558 24.438 Q 798.644 24.138 798.95 24.059 A 0.994 0.994 0 0 1 799.2 24.03 A 1.089 1.089 0 0 0 799.168 23.786 Q 799.077 23.399 798.735 22.761 A 10.019 10.019 0 0 0 798.728 22.747 A 34.821 34.821 0 0 1 798.27 21.866 Q 798.002 21.332 797.715 20.722 Q 797.175 19.575 796.703 18.292 Q 796.23 17.01 796.23 15.66 Q 796.23 14.379 797.264 13.158 A 6.375 6.375 0 0 1 797.378 13.028 A 11.87 11.87 0 0 1 800.029 10.83 A 13.218 13.218 0 0 1 800.078 10.8 A 30.199 30.199 0 0 1 802.18 9.628 A 25.679 25.679 0 0 1 803.115 9.18 Q 804.6 8.505 805.275 8.235 A 0.691 0.691 0 0 0 805.443 8.216 Q 805.791 8.129 805.68 7.627 Q 805.545 7.02 806.085 7.02 L 808.515 7.83 Q 808.273 8.435 807.11 9.744 A 31.037 31.037 0 0 1 806.827 10.057 A 164.703 164.703 0 0 1 806.165 10.779 Q 805.241 11.779 804.735 12.285 Q 805.659 11.625 806.906 10.319 A 31.099 31.099 0 0 0 806.963 10.26 A 234.439 234.439 0 0 1 807.566 9.627 Q 808.149 9.018 808.57 8.588 A 52.284 52.284 0 0 1 808.92 8.235 Q 809.595 8.505 810.135 8.775 Q 810.55 8.983 810.806 9.031 A 0.761 0.761 0 0 0 810.945 9.045 L 811.35 8.64 Q 812.295 8.64 813.443 9.045 A 13.514 13.514 0 0 1 814.893 9.65 A 11.449 11.449 0 0 1 815.535 9.99 Q 816.48 10.53 817.155 11.205 A 5.014 5.014 0 0 1 817.418 11.487 Q 817.83 11.969 817.83 12.285 A 16.775 16.775 0 0 0 814.139 15.252 A 19.217 19.217 0 0 0 813.645 15.795 Q 811.755 17.955 809.73 19.98 Q 810.945 19.17 811.89 18.225 Q 812.835 17.28 813.848 16.335 A 45.115 45.115 0 0 1 815.442 14.918 A 50.159 50.159 0 0 1 816.008 14.445 A 15.648 15.648 0 0 1 817.659 13.263 A 19.046 19.046 0 0 1 818.64 12.69 A 29.095 29.095 0 0 0 818.981 13.137 Q 819.14 13.34 819.286 13.518 A 17.043 17.043 0 0 0 819.383 13.635 A 1.738 1.738 0 0 1 819.578 13.92 Q 819.68 14.108 819.709 14.296 A 0.982 0.982 0 0 1 819.72 14.445 Z M 787.995 100.71 L 788.265 97.74 Q 788.13 99.36 787.995 100.71 Z" id="9" vector-effect="non-scaling-stroke"/>
		<path d="M 895.455 88.83 Q 894.645 82.35 893.025 75.735 L 892.755 74.79 L 893.025 75.735 Q 894.645 82.35 895.455 88.83 Q 896.4 95.85 896.4 103.005 Q 896.4 106.11 896.265 109.08 Q 896.13 112.05 895.86 115.155 A 0.4 0.4 0 0 0 895.964 115.23 Q 896.03 115.262 896.113 115.277 A 0.861 0.861 0 0 0 896.265 115.29 A 1.021 1.021 0 0 0 896.735 115.177 Q 897.172 114.954 897.499 114.291 A 4.948 4.948 0 0 0 897.75 113.67 Q 898.29 112.05 898.56 110.025 Q 898.83 108 898.898 106.177 A 411.397 411.397 0 0 0 898.906 105.949 Q 898.965 104.329 898.965 103.95 Q 898.965 100.98 898.763 97.47 Q 898.56 93.96 898.155 90.45 Q 897.75 86.94 897.143 83.565 Q 896.535 80.19 895.86 77.49 Q 895.05 73.035 893.228 67.162 Q 891.405 61.29 888.03 56.092 Q 884.655 50.895 879.593 47.317 A 18.823 18.823 0 0 0 873.192 44.425 A 24.694 24.694 0 0 0 867.24 43.74 Q 862.245 43.74 858.128 46.17 A 34.098 34.098 0 0 0 854.906 48.316 A 26.07 26.07 0 0 0 851.31 51.57 L 851.31 34.56 A 256.358 256.358 0 0 0 851.305 32.913 A 233.729 233.729 0 0 0 850.973 21.735 A 220.867 220.867 0 0 0 850.926 20.916 Q 850.761 18.071 850.538 15.518 A 132.154 132.154 0 0 0 850.028 10.665 A 82.007 82.007 0 0 0 850 10.451 Q 849.399 5.741 848.475 2.902 A 11.069 11.069 0 0 0 848.078 1.851 Q 847.639 0.86 847.126 0.4 A 1.398 1.398 0 0 0 846.18 0 A 1.053 1.053 0 0 0 845.416 0.39 Q 844.656 1.202 844.045 3.703 A 32.008 32.008 0 0 0 843.683 5.4 A 44.24 44.24 0 0 0 843.592 5.901 Q 842.658 11.219 842.4 19.98 L 840.78 19.98 Q 840.78 17.411 840.693 15.452 A 52.155 52.155 0 0 0 840.578 13.567 Q 840.438 11.85 840.267 10.644 A 21.391 21.391 0 0 0 840.105 9.652 A 10.663 10.663 0 0 0 839.969 9.03 Q 839.821 8.448 839.641 8.092 A 1.636 1.636 0 0 0 839.43 7.762 A 2.045 2.045 0 0 0 839.236 7.563 Q 839.112 7.453 838.987 7.387 A 0.779 0.779 0 0 0 838.62 7.29 L 835.515 7.83 Q 835.92 13.095 835.92 18.225 A 129.415 129.415 0 0 1 835.907 20.039 A 116.283 116.283 0 0 1 835.11 32.265 Q 834.692 35.745 834.49 39.693 A 153.2 153.2 0 0 0 834.3 47.52 Q 834.3 57.51 834.908 67.837 Q 835.515 78.165 835.515 90.855 Q 835.11 97.335 834.503 103.14 A 182.613 182.613 0 0 1 833.98 107.589 A 218.225 218.225 0 0 1 832.815 115.425 A 19.697 19.697 0 0 1 832.785 115.572 Q 832.652 116.214 832.41 117.18 Q 832.14 118.26 832.14 119.34 A 5.119 5.119 0 0 0 832.143 119.51 Q 832.163 120.128 832.337 120.482 A 0.781 0.781 0 0 0 833.085 120.96 L 833.085 121.5 L 849.15 124.065 Q 848.88 123.255 848.88 122.85 A 1.991 1.991 0 0 1 848.9 122.582 Q 848.948 122.234 849.108 121.736 A 11.275 11.275 0 0 1 849.285 121.23 Q 850.23 116.91 851.108 110.632 A 660.259 660.259 0 0 1 851.559 107.46 A 751.121 751.121 0 0 1 853.065 97.537 Q 854.145 90.72 855.36 83.902 Q 855.968 80.494 856.693 77.456 A 82.353 82.353 0 0 1 858.263 71.752 A 61.123 61.123 0 0 1 859.089 69.313 Q 860.434 65.613 861.975 63.045 Q 862.893 61.516 863.949 60.679 A 4.346 4.346 0 0 1 866.7 59.67 L 867.645 59.535 Q 868.631 59.535 869.796 60.011 A 10.454 10.454 0 0 1 871.02 60.615 A 10.688 10.688 0 0 1 871.581 60.959 Q 873.191 62.016 874.8 63.855 A 24.24 24.24 0 0 0 874.789 63.841 Q 873.428 62.057 872.12 61.024 A 7.702 7.702 0 0 0 870.615 60.075 Q 868.59 59.13 867.105 59.13 A 5.167 5.167 0 0 0 864.41 59.889 Q 862.675 60.926 861.233 63.382 Q 859.789 65.841 858.57 68.976 A 59.277 59.277 0 0 0 856.913 73.912 A 119.284 119.284 0 0 0 855.982 77.305 A 137.96 137.96 0 0 0 853.808 87.277 A 524.77 524.77 0 0 0 853.456 89.24 Q 852.411 95.143 851.715 99.9 L 852.12 91.395 A 252.751 252.751 0 0 1 852.725 88.433 Q 854.591 79.581 856.645 73.181 A 73.531 73.531 0 0 1 858.87 67.095 Q 862.515 58.455 867.105 58.455 L 869.13 58.455 Q 869.995 59.233 870.749 59.707 A 6.231 6.231 0 0 0 871.56 60.142 A 18.017 18.017 0 0 1 872.342 60.506 A 14.715 14.715 0 0 1 873.518 61.155 A 6.285 6.285 0 0 1 873.955 61.452 Q 874.303 61.709 874.671 62.044 A 13.405 13.405 0 0 1 875.408 62.775 Q 876.112 63.526 876.913 64.864 A 27.973 27.973 0 0 1 877.635 66.15 L 876.42 66.555 Q 879.255 71.82 880.605 77.827 Q 881.955 83.835 882.63 90.045 Q 883.305 96.255 883.575 102.6 A 182.908 182.908 0 0 0 883.735 105.739 A 161.495 161.495 0 0 0 884.52 114.75 Q 885.195 110.7 885.6 106.447 Q 886.005 102.195 886.005 97.875 A 46.094 46.094 0 0 0 885.961 95.951 Q 885.872 93.824 885.6 91.057 A 86.594 86.594 0 0 0 885.23 87.903 A 104.01 104.01 0 0 0 884.318 82.35 Q 883.44 77.76 882.023 73.102 A 54.741 54.741 0 0 0 880.833 69.608 A 43.733 43.733 0 0 0 878.648 64.732 A 25.268 25.268 0 0 0 876.784 61.707 A 18.613 18.613 0 0 0 874.125 58.725 A 10.778 10.778 0 0 0 873.924 58.549 A 8.421 8.421 0 0 0 868.32 56.43 Q 864.675 57.24 861.975 59.94 A 24.159 24.159 0 0 0 860.36 61.726 A 27.621 27.621 0 0 0 857.318 66.352 A 40.531 40.531 0 0 0 856.722 67.527 A 44.785 44.785 0 0 0 854.078 74.385 A 97.65 97.65 0 0 0 853.998 74.655 A 89.72 89.72 0 0 0 851.985 82.89 L 851.985 82.215 A 175.268 175.268 0 0 1 852.741 79.01 A 209.593 209.593 0 0 1 854.213 73.372 Q 855.495 68.715 857.318 64.867 A 33.902 33.902 0 0 1 857.345 64.81 Q 858.202 63.01 859.177 61.507 A 20.831 20.831 0 0 1 861.503 58.523 A 9.632 9.632 0 0 1 862.575 57.542 A 6.777 6.777 0 0 1 866.835 56.025 Q 870.615 56.025 873.585 58.252 A 18.184 18.184 0 0 1 876.247 60.713 A 22.977 22.977 0 0 1 878.783 64.193 A 34.302 34.302 0 0 1 880.589 67.648 A 42.807 42.807 0 0 1 882.495 72.697 Q 883.98 77.49 884.925 82.62 Q 885.87 87.75 886.275 92.745 Q 886.478 95.242 886.579 97.504 A 96.036 96.036 0 0 1 886.68 101.79 Q 886.68 105.3 886.478 108.607 Q 886.275 111.915 885.735 115.155 A 23.698 23.698 0 0 1 885.608 115.583 Q 885.402 116.258 885.195 116.775 A 3.159 3.159 0 0 0 885.121 116.981 Q 884.925 117.59 884.925 118.395 Q 884.925 119.745 885.128 121.297 A 18.932 18.932 0 0 0 885.325 122.514 A 15.054 15.054 0 0 0 885.735 124.132 Q 885.966 124.864 886.219 125.464 A 9.709 9.709 0 0 0 886.613 126.292 A 2.811 2.811 0 0 0 886.778 126.564 Q 886.919 126.766 887.075 126.901 A 1.026 1.026 0 0 0 887.76 127.17 Q 889.65 127.17 890.528 125.347 A 17.658 17.658 0 0 0 891.231 123.662 A 22.232 22.232 0 0 0 891.945 121.23 Q 892.485 118.935 893.093 116.91 A 6.705 6.705 0 0 1 893.342 116.213 Q 893.571 115.674 893.87 115.276 A 2.745 2.745 0 0 1 895.05 114.345 Q 895.86 107.325 895.86 99.9 Q 895.86 93.69 895.05 87.48 Q 894.375 81.675 893.025 75.735 M 851.31 55.89 L 851.31 56.295 Q 852.525 54.54 854.078 52.852 Q 855.63 51.165 857.52 49.882 Q 859.41 48.6 861.84 47.79 A 15.366 15.366 0 0 1 864.743 47.141 A 20.637 20.637 0 0 1 867.375 46.98 Q 873.45 46.98 878.243 50.49 Q 883.035 54 886.545 59.13 Q 885.06 56.835 883.373 54.675 Q 881.685 52.515 879.255 50.76 Q 876.555 48.87 873.45 47.722 Q 870.345 46.575 866.97 46.575 Q 861.57 46.575 857.655 49.477 A 30.116 30.116 0 0 0 853.625 53.037 A 24.722 24.722 0 0 0 851.31 55.89 Z M 834.165 121.365 L 846.585 123.39 A 2.552 2.552 0 0 0 846.992 123.217 Q 847.2 123.104 847.344 122.963 A 1.052 1.052 0 0 0 847.598 122.58 Q 847.8 122.04 848.07 122.04 L 849.015 114.885 L 846.855 121.635 L 846.45 122.445 Q 844.155 122.31 841.995 121.905 Q 840.105 121.635 838.013 121.297 A 897.273 897.273 0 0 1 836.272 121.015 Q 835.476 120.885 834.765 120.767 A 516.352 516.352 0 0 1 834.3 120.69 A 15.189 15.189 0 0 1 834.123 120.125 Q 833.895 119.341 833.895 118.936 A 1.529 1.529 0 0 1 833.895 118.935 A 0.575 0.575 0 0 1 833.935 118.728 A 0.706 0.706 0 0 1 833.963 118.665 A 0.65 0.65 0 0 0 834.017 118.513 A 0.551 0.551 0 0 0 834.03 118.395 L 833.085 118.26 Q 833.355 120.42 833.558 120.757 A 1.69 1.69 0 0 0 833.84 121.106 Q 833.977 121.238 834.154 121.357 A 2.783 2.783 0 0 0 834.165 121.365 Z" id="10" vector-effect="non-scaling-stroke"/>
	</g>
</svg>
